<svg width="32" height="28" viewBox="0 0 32 28" fill="none" xmlns="http://www.w3.org/2000/svg">
<path d="M16.4176 19.8013C17.3725 19.8013 18.1465 19.0272 18.1465 18.0724C18.1465 17.1176 17.3725 16.3435 16.4176 16.3435C15.4628 16.3435 14.6887 17.1176 14.6887 18.0724C14.6887 19.0272 15.4628 19.8013 16.4176 19.8013Z" stroke="white" stroke-width="1.013" stroke-linecap="round" stroke-linejoin="round"/>
<path d="M18.2283 17.6333L26.2864 16.1532" stroke="white" stroke-width="1.013" stroke-linecap="round" stroke-linejoin="round"/>
<path d="M6.6178 19.7659L14.6107 18.2978" stroke="white" stroke-width="1.013" stroke-linecap="round" stroke-linejoin="round"/>
<path d="M15.1873 19.5453L15.1902 20.9923L15.1992 24.7943" stroke="white" stroke-width="1.013" stroke-linecap="round" stroke-linejoin="round"/>
<path d="M17.6224 19.5456L17.6353 24.7947" stroke="white" stroke-width="1.013" stroke-linecap="round" stroke-linejoin="round"/>
<path d="M21.2237 24.9541H11.6114C11.1747 24.9541 10.8207 25.3081 10.8207 25.7448V26.1073C10.8207 26.544 11.1747 26.898 11.6114 26.898H21.2237C21.6604 26.898 22.0144 26.544 22.0144 26.1073V25.7448C22.0144 25.3081 21.6604 24.9541 21.2237 24.9541Z" stroke="white" stroke-width="1.013" stroke-linecap="round" stroke-linejoin="round"/>
<path d="M30.4157 12.5773H22.6381C22.3017 12.5773 22.0289 12.85 22.0289 13.1865V13.4039C22.0289 13.7404 22.3017 14.0131 22.6381 14.0131H30.4157C30.7522 14.0131 31.0249 13.7404 31.0249 13.4039V13.1865C31.0249 12.85 30.7522 12.5773 30.4157 12.5773Z" stroke="white" stroke-width="1.013" stroke-linecap="round" stroke-linejoin="round"/>
<path d="M10.314 16.2361H2.53644C2.19999 16.2361 1.92725 16.5088 1.92725 16.8453V17.0627C1.92725 17.3992 2.19999 17.6719 2.53644 17.6719H10.314C10.6505 17.6719 10.9232 17.3992 10.9232 17.0627V16.8453C10.9232 16.5088 10.6505 16.2361 10.314 16.2361Z" stroke="white" stroke-width="1.013" stroke-linecap="round" stroke-linejoin="round"/>
<path d="M6.42528 21.1199C7.15352 21.1199 7.74388 20.5295 7.74388 19.8013C7.74388 19.0731 7.15352 18.4827 6.42528 18.4827C5.69704 18.4827 5.10669 19.0731 5.10669 19.8013C5.10669 20.5295 5.69704 21.1199 6.42528 21.1199Z" stroke="white" stroke-width="1.013" stroke-linecap="round" stroke-linejoin="round"/>
<path d="M26.527 17.4276C27.2552 17.4276 27.8456 16.8372 27.8456 16.109C27.8456 15.3808 27.2552 14.7904 26.527 14.7904C25.7987 14.7904 25.2084 15.3808 25.2084 16.109C25.2084 16.8372 25.7987 17.4276 26.527 17.4276Z" stroke="white" stroke-width="1.013" stroke-linecap="round" stroke-linejoin="round"/>
<path d="M7.7791 6.3123C7.43333 5.97501 6.98103 5.76845 6.49969 5.728C6.31115 5.72869 6.12545 5.77411 5.95789 5.86055C5.79032 5.94699 5.64566 6.07195 5.5358 6.22519C5.45804 6.36754 5.41571 6.52653 5.4124 6.68871C5.40908 6.85088 5.44488 7.01148 5.51675 7.15689C5.58863 7.3023 5.69447 7.42827 5.82532 7.52412C5.95617 7.61998 6.10818 7.68291 6.26849 7.7076C6.84919 7.8244 7.7998 8.0451 7.7997 8.8367C7.7997 9.5579 7.2997 9.80859 6.6916 9.83249C6.09102 9.81772 5.51297 9.60084 5.0509 9.2169" stroke="white" stroke-width="1.013" stroke-linecap="round" stroke-linejoin="round"/>
<path d="M6.42529 9.83409V10.7851" stroke="white" stroke-width="1.013" stroke-linecap="round" stroke-linejoin="round"/>
<path d="M6.42529 4.8513V5.7347" stroke="white" stroke-width="1.013" stroke-linecap="round" stroke-linejoin="round"/>
<path d="M6.42526 13.1334C9.43538 13.1334 11.8756 10.6932 11.8756 7.68309C11.8756 4.67297 9.43538 2.2328 6.42526 2.2328C3.41514 2.2328 0.974976 4.67297 0.974976 7.68309C0.974976 10.6932 3.41514 13.1334 6.42526 13.1334Z" stroke="white" stroke-width="1.013" stroke-linecap="round" stroke-linejoin="round" stroke-dasharray="2.3 2.52"/>
<path d="M27.568 4.23909C27.3021 3.97977 26.9543 3.82095 26.5842 3.78979C26.4392 3.79035 26.2965 3.82531 26.1676 3.89178C26.0388 3.95826 25.9276 4.05436 25.8431 4.1722C25.7834 4.28167 25.7509 4.40393 25.7483 4.52863C25.7458 4.65332 25.7733 4.7768 25.8286 4.88861C25.8838 5.00042 25.9652 5.09728 26.0658 5.17101C26.1664 5.24473 26.2832 5.29316 26.4065 5.31219C26.8529 5.40219 27.5839 5.5722 27.5838 6.1803C27.5838 6.7349 27.1995 6.92769 26.7318 6.94609C26.27 6.9347 25.8255 6.76793 25.4702 6.4727" stroke="white" stroke-width="1.013" stroke-linecap="round" stroke-linejoin="round"/>
<path d="M26.527 6.9469V7.6781" stroke="white" stroke-width="1.013" stroke-linecap="round" stroke-linejoin="round"/>
<path d="M26.527 3.1156V3.7948" stroke="white" stroke-width="1.013" stroke-linecap="round" stroke-linejoin="round"/>
<path d="M26.527 9.4838C28.8415 9.4838 30.7178 7.60751 30.7178 5.293C30.7178 2.97848 28.8415 1.1022 26.527 1.1022C24.2125 1.1022 22.3362 2.97848 22.3362 5.293C22.3362 7.60751 24.2125 9.4838 26.527 9.4838Z" stroke="white" stroke-width="0.9182" stroke-linecap="round" stroke-linejoin="round" stroke-dasharray="2.07 2.3"/>
</svg>
