<svg xmlns="http://www.w3.org/2000/svg" width="65" height="65"><g transform="translate(-22.215 2.761)"><g></g></g><g><defs><linearGradient id="idsrQ42Ntp3g1928283805" gradientTransform="rotate(-90.46170260559681, 0.5, 0.5)"><stop offset="0" stop-color="rgb(49,27,204)" stop-opacity="1"></stop><stop offset="1" stop-color="rgb(83,83,244)" stop-opacity="1"></stop></linearGradient></defs><path d="M 33.565 63.481 L 6.148 48.047 L 33.543 32.599 L 60.927 47.968 Z" fill="url(#idsrQ42Ntp3g1928283805)"></path></g><g><defs><linearGradient id="idjWgeX7I8sg391755388" gradientTransform="rotate(-30.97952523084591, 0.5, 0.5)"><stop offset="0" stop-color="rgb(6,6,140)" stop-opacity="1"></stop><stop offset="1" stop-color="rgb(8,0,81)" stop-opacity="1"></stop></linearGradient></defs><path d="M 33.565 63.481 L 33.543 65.21 L 60.97 49.717 L 60.927 47.968 Z" fill="url(#idjWgeX7I8sg391755388)"></path></g><g><defs><linearGradient id="idqUSGu6If9g330366974" gradientTransform="rotate(0, 0.5, 0.5)"><stop offset="0" stop-color="rgb(25,42,204)" stop-opacity="1"></stop><stop offset="1" stop-color="rgb(18,5,147)" stop-opacity="1"></stop></linearGradient></defs><path d="M 33.565 63.481 L 6.148 48.047 L 6.148 49.764 L 33.543 65.21 Z" fill="url(#idqUSGu6If9g330366974)"></path></g><path d="M 16.812 48.047 L 16.812 54.049 L 33.565 63.481 L 55.622 50.977 L 50.22 47.968 Z" fill="rgb(31,32,35)" opacity="0.25"></path><g><defs><linearGradient id="idcGAgaYAdMg-74587379" gradientTransform="rotate(-1.736169890011837, 0.5, 0.5)"><stop offset="0" stop-color="rgb(108,108,255)" stop-opacity="1"></stop><stop offset="1" stop-color="rgb(63,63,239)" stop-opacity="1"></stop></linearGradient></defs><path d="M 50.284 47.183 C 50.284 52.161 42.789 56.198 33.543 56.198 C 24.296 56.198 16.801 52.163 16.801 47.183 L 16.81 39.873 L 50.255 39.895 Z" fill="url(#idcGAgaYAdMg-74587379)"></path></g><g><defs><linearGradient id="idcK4lRLOG0g-78568402" gradientTransform="rotate(89.88921943519813, 0.5, 0.5)"><stop offset="0" stop-color="rgb(133,133,255)" stop-opacity="1"></stop><stop offset="1" stop-color="rgb(171,171,255)" stop-opacity="1"></stop></linearGradient></defs><path d="M 33.531 49.33 C 42.778 49.33 50.274 45.294 50.274 40.316 C 50.274 35.337 42.778 31.301 33.531 31.301 C 24.285 31.301 16.79 35.337 16.79 40.316 C 16.79 45.294 24.285 49.33 33.531 49.33 Z" fill="url(#idcK4lRLOG0g-78568402)"></path></g><g><defs><linearGradient id="idkfYCQ3oulg-74587379" gradientTransform="rotate(-1.736127579607981, 0.5, 0.5)"><stop offset="0" stop-color="rgb(108,108,255)" stop-opacity="1"></stop><stop offset="1" stop-color="rgb(63,63,239)" stop-opacity="1"></stop></linearGradient></defs><path d="M 50.279 37.313 C 50.279 42.29 42.785 46.327 33.537 46.327 C 24.29 46.327 16.795 42.292 16.795 37.313 L 16.804 30.003 L 50.25 30.024 Z" fill="url(#idkfYCQ3oulg-74587379)"></path></g><g><defs><linearGradient id="idCAVD8yYZrg-78568402" gradientTransform="rotate(89.88921943519813, 0.5, 0.5)"><stop offset="0" stop-color="rgb(133,133,255)" stop-opacity="1"></stop><stop offset="1" stop-color="rgb(171,171,255)" stop-opacity="1"></stop></linearGradient></defs><path d="M 33.526 39.461 C 42.772 39.461 50.268 35.425 50.268 30.447 C 50.268 25.469 42.772 21.433 33.526 21.433 C 24.28 21.433 16.784 25.469 16.784 30.447 C 16.784 35.425 24.28 39.461 33.526 39.461 Z" fill="url(#idCAVD8yYZrg-78568402)"></path></g><g><defs><linearGradient id="idut13IrR1Ug-74587379" gradientTransform="rotate(-1.736169890011837, 0.5, 0.5)"><stop offset="0" stop-color="rgb(108,108,255)" stop-opacity="1"></stop><stop offset="1" stop-color="rgb(63,63,239)" stop-opacity="1"></stop></linearGradient></defs><path d="M 50.274 27.016 C 50.274 31.993 42.779 36.03 33.531 36.03 C 24.285 36.03 16.79 31.995 16.79 27.016 L 16.799 19.705 L 50.244 19.727 Z" fill="url(#idut13IrR1Ug-74587379)"></path></g><g><defs><linearGradient id="idwOzKst98Yg-78568402" gradientTransform="rotate(89.89185706135271, 0.5, 0.5)"><stop offset="0" stop-color="rgb(133,133,255)" stop-opacity="1"></stop><stop offset="1" stop-color="rgb(171,171,255)" stop-opacity="1"></stop></linearGradient></defs><path d="M 33.522 29.162 C 42.768 29.162 50.264 25.126 50.264 20.148 C 50.264 15.17 42.768 11.134 33.522 11.134 C 24.276 11.134 16.781 15.17 16.781 20.148 C 16.781 25.126 24.276 29.162 33.522 29.162 Z" fill="url(#idwOzKst98Yg-78568402)"></path></g><g><defs><linearGradient id="idWSupFTPNcg463924759" gradientTransform="rotate(0, 0.5, 0.5)"><stop offset="0" stop-color="rgb(222,212,255)" stop-opacity="1"></stop><stop offset="1" stop-color="rgb(197,189,255)" stop-opacity="1"></stop></linearGradient></defs><path d="M 42.779 9.261 L 38.52 6.871 L 34.334 9.261 L 38.557 11.643 Z" fill="url(#idWSupFTPNcg463924759)"></path></g><g><defs><linearGradient id="idV66ftTxbng-443211409" gradientTransform="rotate(90, 0.5, 0.5)"><stop offset="0" stop-color="rgb(133,133,255)" stop-opacity="1"></stop><stop offset="1" stop-color="rgb(83,83,244)" stop-opacity="1"></stop></linearGradient></defs><path d="M 32.221 15.214 L 32.221 5.954 L 38.557 2.381 L 38.698 11.562 L 42.779 9.261 L 35.388 21.433 L 27.998 17.595 Z" fill="url(#idV66ftTxbng-443211409)"></path></g><g><defs><linearGradient id="idJuU36GYf8g1486864014" gradientTransform="rotate(0, 0.5, 0.5)"><stop offset="0" stop-color="rgb(197,189,255)" stop-opacity="1"></stop><stop offset="1" stop-color="rgb(228,215,255)" stop-opacity="1"></stop></linearGradient></defs><path d="M 27.998 17.595 L 23.774 15.214 L 27.998 12.832 L 32.221 15.214 Z" fill="url(#idJuU36GYf8g1486864014)"></path></g><g><defs><linearGradient id="iddYOiGY43Lg-1146379272" gradientTransform="rotate(90, 0.5, 0.5)"><stop offset="0" stop-color="rgb(201,192,255)" stop-opacity="1"></stop><stop offset="1" stop-color="rgb(159,159,255)" stop-opacity="1"></stop></linearGradient></defs><path d="M 32.221 5.954 L 27.998 3.571 L 27.998 12.832 L 32.221 15.214 Z" fill="url(#iddYOiGY43Lg-1146379272)"></path></g><g><defs><linearGradient id="idO1OiClqFjg1486863968" gradientTransform="rotate(90, 0.5, 0.5)"><stop offset="0" stop-color="rgb(197,189,255)" stop-opacity="1"></stop><stop offset="1" stop-color="rgb(228,215,255)" stop-opacity="1"></stop></linearGradient></defs><path d="M 34.334 0 L 27.998 3.571 L 32.221 5.954 L 38.557 2.381 Z" fill="url(#idO1OiClqFjg1486863968)"></path></g></svg>