<svg xmlns="http://www.w3.org/2000/svg" width="15" height="12"><path d="M 12.553 1.423 C 11.62 1 10.629 0.692 9.587 0.512 C 9.568 0.512 9.548 0.512 9.541 0.535 C 9.412 0.762 9.269 1.054 9.171 1.285 C 8.044 1.119 6.936 1.119 5.84 1.285 C 5.739 1.046 5.595 0.758 5.452 0.535 C 5.44 0.519 5.424 0.508 5.405 0.512 C 4.511 0.688 3.368 1.012 2.451 1.423 C 2.443 1.423 2.435 1.431 2.431 1.438 C 0.527 4.246 0.021 6.938 0.293 9.631 C 0.293 9.642 0.301 9.658 0.313 9.669 C 1.557 10.577 2.762 11.131 3.951 11.488 C 3.971 11.488 3.99 11.488 4.002 11.473 C 4.282 11.096 4.53 10.696 4.748 10.273 C 4.76 10.25 4.748 10.219 4.721 10.212 C 4.332 10.058 3.943 9.881 3.582 9.673 C 3.555 9.658 3.551 9.615 3.582 9.596 C 3.66 9.538 3.737 9.481 3.807 9.423 C 3.819 9.412 3.838 9.412 3.854 9.415 C 6.241 10.492 8.829 10.492 11.162 9.415 C 11.177 9.408 11.197 9.412 11.208 9.419 C 11.282 9.481 11.356 9.538 11.434 9.596 C 11.461 9.615 11.457 9.658 11.434 9.673 C 11.072 9.885 10.695 10.058 10.295 10.212 C 10.268 10.223 10.256 10.25 10.271 10.277 C 10.489 10.7 10.742 11.096 11.01 11.469 C 11.022 11.485 11.041 11.492 11.061 11.485 C 12.25 11.119 13.459 10.569 14.707 9.665 C 14.718 9.658 14.726 9.646 14.726 9.627 C 15.029 6.515 14.217 3.819 12.573 1.435 C 12.573 1.427 12.561 1.419 12.553 1.419 Z M 5.09 8 C 4.351 8 3.768 7.346 3.768 6.538 C 3.768 5.731 4.351 5.077 5.09 5.077 C 5.829 5.077 6.412 5.731 6.412 6.538 C 6.412 7.346 5.829 8 5.09 8 Z M 9.949 8 C 9.21 8 8.627 7.346 8.627 6.538 C 8.627 5.731 9.21 5.077 9.949 5.077 C 10.687 5.077 11.27 5.731 11.27 6.538 C 11.27 7.346 10.687 8 9.949 8 Z" fill="#dbdbdb"></path></svg>