<svg width="26" height="25" viewBox="0 0 26 25" fill="none" xmlns="http://www.w3.org/2000/svg">
<path d="M13.0384 16.8826C12.1331 16.6425 11.3076 16.1669 10.6458 15.5042L9.814 14.6724C8.81507 13.6675 8.25439 12.3082 8.25439 10.8913C8.25439 9.47445 8.81507 8.11513 9.814 7.11028L14.7933 2.13098C15.7981 1.13201 17.1574 0.571289 18.5743 0.571289C19.9912 0.571289 21.3506 1.13201 22.3554 2.13098L23.1872 2.96278C24.1862 3.96759 24.7469 5.3269 24.7469 6.74378C24.7469 8.16067 24.1862 9.51998 23.1872 10.5248L18.2079 15.5042C17.8479 15.8646 17.4378 16.1714 16.9903 16.4149" stroke="white" stroke-width="1.013" stroke-linecap="round" stroke-linejoin="round"/>
<path d="M14.1052 14.4036C13.3185 14.3044 12.5871 13.9461 12.0266 13.3852V13.3852C11.3555 12.7101 10.9789 11.797 10.9789 10.8452C10.9789 9.89339 11.3555 8.98024 12.0266 8.3052L16.0137 4.3181C16.6887 3.64701 17.6019 3.27032 18.5537 3.27032C19.5056 3.27032 20.4187 3.64701 21.0938 4.3181V4.3181C21.7648 4.99311 22.1415 5.90626 22.1415 6.8581C22.1415 7.80994 21.7648 8.7231 21.0938 9.3981L17.5577 12.9341" stroke="white" stroke-width="1.013" stroke-linecap="round" stroke-linejoin="round"/>
<path d="M12.2529 8.07858C13.2773 8.28559 14.2178 8.79051 14.9564 9.52998L15.7882 10.3618C16.7871 11.3666 17.3479 12.7259 17.3479 14.1428C17.3479 15.5597 16.7871 16.919 15.7882 17.9238L10.8089 22.9032C9.80402 23.9021 8.44472 24.4628 7.02783 24.4628C5.61095 24.4628 4.25161 23.9021 3.24677 22.9032L2.41498 22.0714C1.41606 21.0665 0.855347 19.7072 0.855347 18.2903C0.855347 16.8734 1.41606 15.5141 2.41498 14.5093L7.39426 9.52998C7.78371 9.14005 8.23157 8.8132 8.72168 8.56119" stroke="white" stroke-width="1.013" stroke-linecap="round" stroke-linejoin="round"/>
<path d="M11.0617 10.67C11.5487 10.6562 12.0334 10.742 12.4861 10.9219C12.9389 11.1019 13.3501 11.3723 13.6948 11.7166C14.3659 12.3916 14.7426 13.3047 14.7426 14.2566C14.7426 15.2084 14.3659 16.1216 13.6948 16.7966L9.70773 20.7838C9.03269 21.4548 8.11954 21.8314 7.16772 21.8314C6.21591 21.8314 5.30279 21.4548 4.62775 20.7838V20.7838C3.95673 20.1087 3.58008 19.1956 3.58008 18.2438C3.58008 17.292 3.95673 16.3788 4.62775 15.7038L8.33194 12" stroke="white" stroke-width="1.013" stroke-linecap="round" stroke-linejoin="round"/>
<path d="M4.59875 6.7804L5.92596 7.30479" stroke="white" stroke-width="1.013" stroke-linecap="round" stroke-linejoin="round"/>
<path d="M5.63733 3.8223L6.76544 4.69609" stroke="white" stroke-width="1.013" stroke-linecap="round" stroke-linejoin="round"/>
<path d="M8.55322 2.4787L9.27914 3.7073" stroke="white" stroke-width="1.013" stroke-linecap="round" stroke-linejoin="round"/>
</svg>
