<svg width="24" height="31" viewBox="0 0 24 31" fill="none" xmlns="http://www.w3.org/2000/svg">
<path d="M11.6797 17.9698C12.5423 17.9698 13.2414 16.8403 13.2414 15.4471C13.2414 14.0538 12.5423 12.9244 11.6797 12.9244C10.8172 12.9244 10.118 14.0538 10.118 15.4471C10.118 16.8403 10.8172 17.9698 11.6797 17.9698Z" stroke="white" stroke-width="1.013" stroke-linecap="round" stroke-linejoin="round"/>
<path d="M8.25793 12.924H6.12695L5.86694 15.168" stroke="white" stroke-width="1.013" stroke-linecap="round" stroke-linejoin="round"/>
<path d="M6.00195 15.1017C6.26859 14.9216 6.58265 14.8246 6.90442 14.8229C7.22619 14.8213 7.54122 14.9151 7.80966 15.0926C8.07811 15.27 8.2879 15.523 8.41254 15.8197C8.53717 16.1163 8.57105 16.4433 8.50986 16.7592C8.44867 17.0751 8.29517 17.3658 8.06879 17.5944C7.8424 17.8231 7.55328 17.9795 7.23801 18.0439C6.92273 18.1082 6.59544 18.0776 6.29755 17.956C5.99965 17.8343 5.74455 17.6271 5.56445 17.3604" stroke="white" stroke-width="1.013" stroke-linecap="round" stroke-linejoin="round"/>
<path d="M15.0092 14.1844L17.8941 18.1755" stroke="white" stroke-width="1.013" stroke-linecap="round" stroke-linejoin="round"/>
<path d="M17.7878 14.1844L14.9028 18.1755" stroke="white" stroke-width="1.013" stroke-linecap="round" stroke-linejoin="round"/>
<path d="M22.9533 23.9877C22.6775 24.3406 22.3858 24.6798 22.0781 25.0053" stroke="white" stroke-width="1.013" stroke-linecap="round" stroke-linejoin="round"/>
<path d="M0.648682 6.2868C0.893482 5.98387 1.15014 5.69139 1.41867 5.40939" stroke="white" stroke-width="1.013" stroke-linecap="round" stroke-linejoin="round"/>
<path d="M7.14337 7.5577C8.31327 6.7012 9.69169 6.17452 11.1346 6.03266C12.5776 5.89079 14.0322 6.13895 15.3465 6.75121L14.2656 8.24601L20.2336 7.2988L20.0951 1.1249L18.4499 2.8028C16.0269 1.43795 13.2512 0.828659 10.4793 1.05318C7.70747 1.2777 5.06602 2.32579 2.89429 4.06281" stroke="white" stroke-width="1.013" stroke-linecap="round" stroke-linejoin="round"/>
<path d="M14.9138 3.1808C12.8798 2.63344 10.7333 2.66516 8.71631 3.27239" stroke="white" stroke-width="1.013" stroke-linecap="round" stroke-linejoin="round"/>
<path d="M16.9156 3.9476C16.9156 3.9476 16.8157 3.89 16.6281 3.8007" stroke="white" stroke-width="1.013" stroke-linecap="round" stroke-linejoin="round"/>
<path d="M16.4009 22.8955C15.231 23.752 13.8526 24.2787 12.4096 24.4205C10.9667 24.5624 9.51209 24.3143 8.19778 23.702L9.27869 22.2073L3.31067 23.1545L3.44928 29.3284L5.09448 27.6504C7.46156 29.0428 10.1973 29.6793 12.9359 29.4747C15.6746 29.2702 18.2854 28.2343 20.4194 26.5057" stroke="white" stroke-width="1.013" stroke-linecap="round" stroke-linejoin="round"/>
<path d="M8.63037 27.2725C10.6645 27.8198 12.811 27.788 14.828 27.1809" stroke="white" stroke-width="1.013" stroke-linecap="round" stroke-linejoin="round"/>
<path d="M6.62866 26.5057C6.62866 26.5057 6.72866 26.5632 6.91626 26.6526" stroke="white" stroke-width="1.013" stroke-linecap="round" stroke-linejoin="round"/>
</svg>
