<svg xmlns="http://www.w3.org/2000/svg" width="94" height="77"><path d="M 38.842 46.953 C 32.965 46.953 27.074 46.967 21.197 46.938 C 20.013 46.938 19.031 46.374 18.266 45.462 C 17.428 44.478 17.111 43.334 17.298 42.061 C 17.558 40.179 19.002 38.717 20.822 38.457 C 21.154 38.413 21.486 38.399 21.803 38.399 C 32.907 38.399 43.997 38.384 55.1 38.399 C 56.79 38.399 58.407 38.167 59.981 37.574 C 61.8 36.879 63.36 35.822 64.703 34.418 C 66.175 32.87 67.186 31.046 67.764 28.976 C 68.139 27.645 68.284 26.27 68.197 24.895 C 68.009 22.13 67.071 19.641 65.295 17.513 C 63.389 15.255 60.992 13.793 58.089 13.171 C 57.165 12.968 56.227 12.882 55.288 12.882 C 49.585 12.882 43.896 12.896 38.192 12.882 C 36.661 12.867 35.16 11.854 34.524 10.247 C 33.615 7.946 34.799 5.355 37.124 4.632 C 37.571 4.487 38.062 4.414 38.524 4.414 C 44.083 4.4 49.642 4.4 55.202 4.414 C 58.176 4.414 61.049 4.964 63.778 6.151 C 65.583 6.933 67.244 7.946 68.775 9.191 C 70.998 11 72.774 13.186 74.131 15.704 C 75.186 17.658 75.879 19.742 76.283 21.913 C 76.601 23.592 76.673 25.3 76.572 26.993 C 76.398 30.033 75.59 32.928 74.175 35.62 C 73.121 37.617 71.792 39.412 70.175 40.975 C 68.37 42.726 66.305 44.13 63.995 45.158 C 62.436 45.853 60.818 46.374 59.129 46.649 C 58.017 46.822 56.891 46.953 55.765 46.953 C 50.133 46.967 44.488 46.953 38.842 46.953 Z" fill="#a5a5a7"></path><path d="M 42.726 21.407 C 46.957 21.407 51.187 21.392 55.404 21.407 C 57.541 21.407 59.331 22.955 59.606 25.097 C 59.909 27.413 58.508 29.338 56.342 29.859 C 55.952 29.961 55.534 29.961 55.129 29.961 C 46.87 29.975 38.611 29.989 30.351 29.989 C 29.326 29.989 28.359 29.801 27.507 29.179 C 26.554 28.47 25.991 27.543 25.803 26.371 C 25.485 24.475 26.467 22.68 28.084 21.855 C 28.734 21.537 29.413 21.407 30.135 21.407 Z M 0.751 60.37 L 3.971 60.37 C 4.837 60.37 5.689 60.341 6.555 60.384 C 7.696 60.442 8.822 60.616 9.876 61.122 C 11.364 61.846 12.36 62.975 12.822 64.553 C 13.082 65.421 13.125 66.318 13.01 67.23 C 12.88 68.287 12.548 69.257 11.884 70.082 C 11.306 70.805 10.613 71.384 9.747 71.717 C 9.111 71.963 8.461 72.122 7.797 72.296 C 7.581 72.354 7.364 72.368 7.133 72.368 L 0.91 72.368 C 0.866 72.368 0.809 72.368 0.751 72.354 Z M 4.144 69.676 C 5.241 69.662 6.324 69.778 7.378 69.488 C 8.259 69.257 8.924 68.707 9.299 67.838 C 9.602 67.158 9.645 66.463 9.53 65.739 C 9.342 64.524 8.577 63.67 7.451 63.322 C 6.368 63.004 5.256 63.178 4.144 63.134 Z M 85.582 60.384 L 93.206 60.384 L 93.206 63.076 L 88.426 63.076 C 88.369 63.626 88.325 64.162 88.268 64.741 C 88.629 64.741 88.946 64.726 89.264 64.741 C 90.289 64.799 91.3 64.9 92.21 65.407 C 93.22 65.957 93.769 66.796 93.928 67.939 C 94.029 68.707 93.942 69.416 93.639 70.111 C 93.307 70.907 92.744 71.471 92.022 71.876 C 91.098 72.383 90.116 72.586 89.062 72.614 C 87.921 72.643 86.809 72.528 85.712 72.18 C 85.149 72.007 84.629 71.732 84.051 71.486 C 84.484 70.559 84.889 69.705 85.264 68.909 C 85.957 69.17 86.636 69.474 87.329 69.676 C 88.051 69.879 88.802 69.937 89.524 69.72 C 90.275 69.488 90.65 68.967 90.433 68.243 C 90.304 67.795 89.914 67.636 89.509 67.563 C 89.047 67.476 88.571 67.447 88.094 67.433 C 87.069 67.418 86.044 67.433 84.932 67.433 C 85.178 65.074 85.38 62.729 85.582 60.384 Z M 44.3 72.368 L 41.037 72.368 L 41.037 63.105 L 44.184 63.105 L 44.184 63.988 C 44.488 63.786 44.762 63.597 45.065 63.424 C 45.672 63.076 46.321 62.961 47 62.961 C 47.708 62.961 48.372 63.033 49.022 63.351 C 49.975 63.814 50.523 64.611 50.754 65.609 C 50.884 66.116 50.927 66.666 50.927 67.187 C 50.956 68.808 50.942 70.429 50.942 72.036 L 50.942 72.368 L 47.65 72.368 L 47.65 72.064 C 47.65 70.675 47.664 69.286 47.65 67.882 C 47.65 67.549 47.592 67.216 47.534 66.883 C 47.419 66.101 46.668 65.653 45.83 65.783 C 44.863 65.928 44.372 66.796 44.358 67.607 C 44.329 69.126 44.314 70.661 44.3 72.18 Z M 23.334 72.368 L 20.287 72.368 L 20.287 71.384 C 19.84 72.007 19.219 72.339 18.497 72.47 C 17.241 72.687 16.028 72.586 14.988 71.746 C 14.439 71.312 14.122 70.689 14.107 69.966 C 14.107 69.546 14.122 69.112 14.237 68.707 C 14.425 68.026 14.945 67.592 15.58 67.317 C 16.331 66.999 17.125 66.883 17.948 66.897 C 18.627 66.912 19.32 66.897 19.998 66.897 C 19.97 66.116 19.522 65.682 18.858 65.551 C 17.717 65.349 16.663 65.537 15.696 66.203 C 15.652 66.232 15.609 66.232 15.566 66.246 C 15.19 65.508 14.829 64.77 14.439 63.988 C 14.771 63.814 15.104 63.626 15.45 63.482 C 16.735 62.946 18.107 62.859 19.464 62.961 C 20.446 63.033 21.385 63.308 22.135 64.032 C 22.699 64.567 23.06 65.204 23.175 65.971 C 23.262 66.492 23.291 67.028 23.291 67.563 C 23.348 69.155 23.334 70.747 23.334 72.368 Z M 20.027 68.62 C 19.522 68.62 19.017 68.605 18.526 68.62 C 18.309 68.634 18.078 68.649 17.89 68.75 C 17.688 68.851 17.457 69.011 17.371 69.213 C 17.111 69.864 17.529 70.357 18.28 70.443 C 19.175 70.545 20.258 69.966 20.027 68.62 Z M 69.078 68.663 C 69.439 68.967 69.771 69.286 70.117 69.561 C 70.637 69.951 71.576 70.009 72.081 69.618 C 72.399 69.372 72.586 69.039 72.586 68.692 C 72.615 66.839 72.601 64.972 72.601 63.105 L 68.515 63.105 L 68.515 60.413 L 76.009 60.413 L 76.009 60.746 C 76.009 63.38 76.023 66 75.994 68.634 C 75.98 69.691 75.648 70.675 74.911 71.457 C 74.363 72.036 73.655 72.397 72.875 72.513 C 72.168 72.614 71.446 72.672 70.724 72.629 C 69.453 72.542 68.312 72.079 67.417 71.138 C 67.287 70.993 67.201 70.863 67.359 70.689 C 67.908 70.038 68.457 69.387 69.006 68.75 C 69.049 68.692 69.078 68.663 69.078 68.663 Z M 62.147 65.522 C 61.367 65.928 60.602 66.318 59.837 66.724 C 59.678 66.811 59.577 66.825 59.447 66.622 C 59.071 65.986 58.523 65.566 57.772 65.566 C 56.963 65.58 56.227 65.971 55.924 66.897 C 55.692 67.607 55.75 68.301 56.082 68.967 C 56.573 69.922 58.017 70.241 58.84 69.561 C 59.129 69.314 59.36 69.011 59.663 68.692 C 60.443 69.097 61.295 69.532 62.147 69.98 C 61.829 70.805 61.295 71.428 60.544 71.876 C 59.548 72.47 58.45 72.643 57.324 72.557 C 56.241 72.484 55.216 72.18 54.321 71.514 C 53.31 70.776 52.732 69.792 52.53 68.562 C 52.4 67.751 52.429 66.955 52.689 66.188 C 53.166 64.813 54.119 63.872 55.461 63.366 C 56.876 62.83 58.32 62.801 59.764 63.279 C 60.775 63.612 61.54 64.263 62.017 65.218 C 62.06 65.305 62.104 65.421 62.147 65.522 Z M 23.94 63.091 L 27.305 63.091 C 28.027 64.929 28.749 66.767 29.485 68.649 C 29.673 68.2 29.861 67.809 30.019 67.404 C 30.51 66.203 31.001 64.987 31.507 63.786 C 31.564 63.655 31.651 63.525 31.68 63.395 C 31.738 63.12 31.896 63.076 32.156 63.076 C 32.979 63.091 33.802 63.076 34.625 63.076 L 34.958 63.076 C 34.77 63.554 34.597 63.988 34.423 64.422 C 33.774 65.986 33.138 67.563 32.488 69.126 C 32.07 70.154 31.637 71.182 31.203 72.209 C 31.175 72.282 31.045 72.368 30.958 72.368 C 29.947 72.383 28.922 72.368 27.911 72.383 C 27.752 72.383 27.695 72.325 27.637 72.195 C 27.074 70.805 26.496 69.416 25.933 68.012 C 25.269 66.391 24.619 64.784 23.955 63.163 C 23.94 63.163 23.94 63.134 23.94 63.091 Z M 79.359 72.354 L 79.359 63.076 L 77.207 63.076 L 77.207 60.384 L 82.81 60.384 L 82.81 72.354 Z M 63.288 72.368 L 63.288 63.105 L 66.594 63.105 L 66.594 72.368 Z M 39.001 72.368 L 35.752 72.368 L 35.752 63.105 L 39.001 63.105 Z M 65.092 58.604 C 65.598 58.676 66.233 58.763 66.637 59.357 C 67.345 60.384 66.796 61.832 65.468 62.078 C 64.861 62.193 64.313 62.107 63.764 61.832 C 62.854 61.368 62.638 59.993 63.345 59.255 C 63.75 58.836 64.313 58.618 65.092 58.604 Z M 35.376 60.37 C 35.275 59.501 36.055 58.763 36.907 58.647 C 37.542 58.561 38.12 58.633 38.669 58.98 C 39.318 59.386 39.492 60.254 39.261 60.949 C 38.957 61.832 37.817 62.295 36.994 62.078 C 36.705 62.005 36.402 61.947 36.156 61.803 C 35.622 61.499 35.319 61.021 35.376 60.37 Z" fill="#A5A5A7"></path></svg>