<svg xmlns="http://www.w3.org/2000/svg" width="194" height="66"><path d="M 45.803 14.021 L 47.328 14.021 C 56.308 14.021 65.288 13.993 74.296 14.05 C 76.386 14.078 78.532 14.22 80.593 14.645 C 84.434 15.438 86.382 17.676 86.665 21.585 C 86.891 24.53 86.891 27.533 86.919 30.479 C 86.947 34.076 86.862 37.645 86.947 41.243 C 86.975 42.489 86.495 42.999 85.394 43.056 C 84.462 43.112 83.445 43.311 82.598 43.056 C 79.916 42.263 77.741 43.339 75.595 44.642 C 74.974 45.01 74.353 45.379 73.76 45.747 L 73.76 28.666 C 73.731 26.315 73.11 25.494 70.823 25.437 C 66.926 25.324 63.029 25.409 58.991 25.409 L 58.991 46.993 L 71.105 46.993 C 71.162 47.135 71.246 47.276 71.303 47.418 C 70.201 48.126 69.157 48.919 67.999 49.514 C 67.208 49.911 66.841 50.364 66.53 51.214 C 66.163 52.233 65.429 53.112 64.808 54.018 C 64.356 54.67 63.848 55.293 63.198 56.171 C 65.344 56.567 67.067 56.397 68.62 55.604 C 69.015 55.406 69.213 54.613 69.298 54.046 C 69.383 53.536 69.185 52.97 69.1 52.432 C 69.241 52.403 69.383 52.375 69.495 52.347 L 70.173 56.086 C 72.178 55.519 72.602 54.839 72.799 51.894 C 73.195 51.922 73.562 51.979 73.957 51.979 C 74.437 51.95 74.917 51.865 75.369 51.809 C 75.397 52.46 75.736 53.423 75.426 53.735 C 74.437 54.755 73.223 55.576 72.065 56.426 C 71.275 57.021 70.427 57.559 69.58 58.097 C 69.354 58.239 69.1 58.38 68.874 58.38 C 61.222 58.409 53.541 58.38 45.775 58.38 C 45.803 43.566 45.803 28.893 45.803 14.021 Z M 160.057 41.696 L 145.316 41.696 L 145.316 58.267 L 132.129 58.267 L 132.129 14.135 L 171.324 14.135 L 171.324 25.352 L 145.373 25.352 L 145.373 30.621 L 160.057 30.621 Z M 107.109 58.125 C 109.143 57.927 111.176 57.757 113.209 57.559 C 113.209 57.445 113.209 57.361 113.181 57.247 L 101.744 57.247 C 101.857 56.737 101.998 56.397 102.055 56.029 C 102.394 53.678 102.365 51.61 99.852 50.222 C 98.158 49.288 96.944 47.701 96.322 45.775 C 96.125 45.152 96.04 44.642 96.915 44.359 C 100.219 43.282 101.038 42.121 101.236 38.609 C 101.292 37.787 101.236 36.937 101.377 36.173 C 100.953 37.476 100.643 38.864 100.05 40.11 C 98.977 42.291 97.028 42.942 94.713 42.574 C 92.905 42.319 91.126 42.064 88.895 41.753 C 89.121 38.099 89.093 34.218 89.714 30.451 C 90.223 27.306 92.679 25.465 95.701 24.7 C 97.424 24.276 99.231 24.077 101.01 24.049 C 107.561 23.964 114.084 24.021 120.636 24.021 C 121.426 24.021 122.245 24.021 123.036 24.134 C 127.583 24.842 129.559 27.08 129.842 32.207 C 129.955 34.416 129.898 36.654 129.7 38.835 C 129.362 42.659 127.639 44.302 123.77 44.444 C 118.829 44.585 113.887 44.557 108.945 44.585 C 106.742 44.614 104.54 44.585 102.365 44.585 C 101.857 46.823 102.507 47.815 104.624 47.843 C 112.334 47.9 120.071 47.9 127.78 47.9 L 129.729 47.9 L 129.729 58.267 L 107.166 58.267 C 107.138 58.239 107.138 58.182 107.109 58.125 Z M 102.196 37.702 C 102.45 37.759 102.62 37.815 102.817 37.815 C 106.912 37.815 110.978 37.844 115.073 37.815 C 116.005 37.815 116.908 37.702 116.965 36.427 C 117.021 35.153 116.541 34.615 115.073 34.615 C 111.656 34.586 108.211 34.615 104.794 34.615 C 102.168 34.615 101.885 34.926 102.196 37.702 Z M 43.459 14.135 L 43.459 25.324 L 31.119 25.324 L 31.119 58.267 L 17.847 58.267 L 17.847 25.409 L 5.45 25.409 L 5.45 14.135 Z M 173.725 28.609 L 186.545 28.609 L 186.545 58.239 L 173.725 58.239 Z M 173.696 13.993 L 186.545 13.993 L 186.545 25.267 L 173.696 25.267 Z" fill="#b5b5b5"></path><path d="M 92.171 55.633 C 93.668 53.282 93.47 52.092 91.211 50.251 C 90.59 49.741 89.912 49.259 89.263 48.778 C 89.291 48.664 89.347 48.523 89.376 48.409 C 89.884 48.438 90.449 48.324 90.872 48.551 C 93.555 49.882 96.238 51.214 98.864 52.715 C 99.457 53.055 99.909 53.933 100.078 54.641 C 100.276 55.491 100.022 56.369 98.751 56.199 C 98.44 56.171 98.073 56.256 97.819 56.426 C 95.616 57.729 94.148 57.53 92.171 55.633 Z M 73.167 57.899 C 73.985 57.219 74.748 56.482 75.623 55.888 C 76.47 55.293 77.459 54.924 78.249 54.301 C 78.758 53.905 79.04 53.253 79.605 52.432 C 80.283 52.8 81.384 53.282 82.344 53.961 C 83.304 54.641 82.711 56.142 81.553 56.936 C 79.04 58.635 76.245 58.295 73.477 58.352 C 73.392 58.21 73.279 58.04 73.167 57.899 Z M 86.043 52.998 C 85.394 52.517 84.744 52.035 83.925 51.412 C 84.688 50.874 85.309 50.421 85.959 49.967 C 87.399 50.845 86.241 51.894 86.382 52.828 Z" fill="#b5b5b5"></path></svg>