<svg xmlns="http://www.w3.org/2000/svg" width="104" height="48"><path d="M 93.026 22.828 C 94.086 22.828 95.159 22.953 96.194 22.803 C 98.239 22.516 99.735 23.963 99.336 25.957 C 99.236 26.481 99.261 27.042 99.336 27.578 C 99.486 28.613 99.299 29.523 98.501 30.234 C 97.965 30.708 98.027 31.094 98.538 31.53 C 99.536 32.378 99.66 33.363 99.448 34.685 C 99.187 36.268 99.536 37.939 99.448 39.559 C 99.411 40.245 99.137 41.205 98.638 41.529 C 97.378 42.34 95.994 43.088 94.56 43.437 C 92.839 43.848 91.63 42.502 91.754 40.719 C 91.792 40.208 91.754 39.697 91.754 39.123 L 87.328 39.123 C 87.328 40.108 87.465 41.056 87.29 41.953 C 87.091 42.963 86.741 43.985 86.23 44.858 C 85.706 45.756 83.636 45.619 82.427 44.833 C 81.99 44.546 81.379 44.497 80.955 44.185 C 79.546 43.175 77.85 43.163 76.304 42.676 C 74.596 42.128 74.271 40.968 74.72 39.148 C 74.87 38.537 74.957 37.839 73.997 38.176 C 71.117 39.173 68.161 39.086 65.181 39.061 C 63.659 39.048 63.597 39.248 63.946 40.744 C 64.158 41.642 64.271 42.589 64.233 43.512 C 64.171 45.095 62.924 46.217 61.452 46.167 C 60.18 46.117 59.071 44.771 59.046 43.3 C 59.046 43.001 59.008 42.552 58.821 42.415 C 57.774 41.654 57.786 40.569 57.873 39.51 C 56.552 38.961 55.566 39.36 54.619 40.22 C 53.846 40.931 52.985 41.554 52.125 42.165 C 50.878 43.05 49.431 42.814 48.346 41.592 C 47.299 40.42 47.137 40.407 45.877 41.33 C 44.842 42.09 43.271 41.966 42.311 41.068 C 42.061 40.844 41.687 40.519 41.425 40.569 C 39.717 40.819 38.906 39.746 38.183 38.512 C 37.971 38.163 37.759 37.826 37.36 37.178 C 35.689 38.238 33.981 39.21 32.435 40.37 C 32.011 40.682 31.948 41.592 31.886 42.252 C 31.774 43.574 31.163 44.11 29.828 44.26 C 27.995 44.472 26.574 43.499 25.14 42.701 C 24.017 42.078 24.105 40.781 24.005 39.647 C 23.955 39.048 23.83 38.45 23.718 37.677 C 22.845 38.163 22.247 38.749 21.598 38.824 C 19.578 39.048 17.545 39.086 15.513 39.173 C 12.582 39.31 9.652 39.447 6.721 39.559 C 5.499 39.609 4.09 37.527 4.365 36.231 C 4.477 35.682 4.427 35.084 4.389 34.51 C 4.34 33.45 4.402 32.478 5.549 31.942 C 5.936 31.755 6.285 31.456 6.958 30.757 C 6.559 30.545 6.085 30.408 5.786 30.097 C 5.15 29.411 4.676 28.675 5.05 27.603 C 5.312 26.855 5.35 26.007 5.35 25.209 C 5.35 24 5.911 23.277 6.958 22.753 C 7.307 22.579 7.657 22.043 7.694 21.656 C 7.806 20.397 7.519 19.412 6.098 18.789 C 3.305 17.567 2.12 13.615 2.444 11.121 C 2.93 7.505 4.913 5.012 8.43 3.94 C 9.652 3.566 11.011 3.404 12.283 3.478 C 14.602 3.628 17.022 3.466 19.154 4.763 C 19.329 4.875 19.84 4.688 20.027 4.488 C 20.837 3.616 21.735 3.553 22.895 3.74 C 24.703 4.027 26.561 4.002 28.394 4.077 C 30.601 4.177 32.796 4.276 35.003 4.301 C 36.101 4.314 37.198 4.127 38.295 4.064 C 40.004 3.965 41.775 3.578 43.396 3.915 C 45.117 4.276 46.613 3.678 48.197 3.653 C 53.546 3.566 58.896 3.715 64.246 3.828 C 65.243 3.852 66.241 4.152 67.238 4.276 C 67.575 4.314 68.036 4.276 68.273 4.077 C 69.071 3.416 69.907 3.503 70.805 3.728 C 71.191 3.828 71.615 3.84 72.014 3.828 C 75.506 3.703 79.01 3.528 82.502 3.441 C 83 3.429 83.649 3.715 83.986 4.089 C 84.634 4.775 85.108 4.638 85.869 4.276 C 89.173 2.668 96.094 3.017 99.124 6.271 C 102.067 9.438 101.718 16.357 97.565 18.614 C 96.156 19.375 94.81 20.285 93.513 21.22 C 93.101 21.519 92.927 22.142 92.64 22.616 C 92.765 22.666 92.902 22.741 93.026 22.828 Z M 44.306 29.698 C 45.453 32.54 47.336 35.109 47.024 38.363 C 47.299 38.126 47.473 37.889 47.424 37.714 C 47.162 36.717 47.623 36.368 48.533 36.318 C 49.518 36.268 49.967 36.804 50.005 37.689 C 50.03 38.288 49.855 38.886 49.855 39.485 C 49.855 39.809 49.992 40.145 50.105 40.47 C 50.117 40.519 50.504 40.519 50.516 40.47 C 50.616 40.183 50.79 39.834 50.716 39.572 C 49.693 35.906 51.8 32.964 52.811 29.772 C 52.91 29.785 53.01 29.785 53.122 29.797 L 53.122 38.575 C 53.235 38.575 53.334 38.587 53.447 38.587 C 53.484 38.35 53.621 38.088 53.559 37.889 C 53.272 36.916 53.721 36.617 54.606 36.63 C 55.517 36.642 56.427 36.63 57.412 36.63 C 57.424 36.443 57.449 36.118 57.449 35.807 C 57.537 32.154 56.988 28.463 57.873 24.86 C 55.305 25.621 52.698 25.708 49.88 24.698 C 51.289 26.917 49.132 28.202 48.758 29.972 C 48.084 28.264 46.364 26.868 47.411 24.723 C 44.705 25.696 42.111 25.583 39.53 24.885 C 39.667 25.696 39.904 26.506 39.917 27.316 C 39.966 30.745 39.941 34.161 39.954 37.59 C 39.954 37.826 40.054 38.063 40.104 38.3 C 40.166 38.3 40.241 38.288 40.303 38.288 C 40.378 37.914 40.465 37.552 40.553 37.116 C 41.376 37.116 42.186 37.066 42.997 37.128 C 43.583 37.178 44.007 37.465 43.757 38.201 C 43.682 38.425 43.608 38.699 43.67 38.911 C 43.732 39.136 43.944 39.323 44.094 39.535 C 44.231 39.323 44.481 39.111 44.481 38.899 C 44.456 38.014 44.318 37.128 44.306 36.231 C 44.294 34.061 44.306 31.879 44.306 29.698 Z M 60.118 25.371 C 60.168 25.558 60.318 25.908 60.318 26.244 C 60.33 29.91 60.33 33.588 60.305 37.253 C 60.293 38.138 60.13 39.036 60.093 39.921 C 60.081 40.133 60.33 40.357 60.467 40.582 C 60.617 40.345 60.841 40.121 60.904 39.871 C 60.978 39.572 60.829 38.986 60.916 38.949 C 62.2 38.537 61.714 37.59 61.552 36.617 L 62.824 36.617 C 65.231 36.617 67.65 36.642 70.057 36.605 C 71.628 36.58 73.199 36.318 74.234 35.034 C 75.419 33.575 74.92 31.518 73.187 30.084 C 74.82 28.551 74.309 26.232 72.301 25.658 C 71.565 25.446 70.78 25.396 70.007 25.384 C 66.727 25.346 63.435 25.371 60.118 25.371 Z M 23.431 17.068 C 23.581 17.779 23.793 18.29 23.78 18.801 C 23.78 19.487 23.531 20.16 23.556 20.833 C 23.568 21.207 23.942 21.569 24.154 21.943 C 24.366 21.544 24.753 21.145 24.778 20.734 C 24.803 20.023 24.516 19.287 24.553 18.577 C 24.578 18.203 25.04 17.866 25.302 17.504 C 25.526 17.854 25.813 18.19 25.95 18.577 C 26.075 18.913 26.062 19.312 26.1 19.686 C 26.187 19.674 26.287 19.661 26.374 19.649 L 26.374 13.353 C 27.072 13.353 27.721 13.34 28.369 13.365 C 28.631 13.378 29.03 13.403 29.118 13.552 C 30.003 15.123 31.312 16.519 31.125 18.527 C 31 19.861 30.913 21.207 30.876 22.541 C 30.863 22.865 31.15 23.19 31.3 23.514 C 31.487 23.165 31.836 22.828 31.824 22.479 C 31.811 21.02 31.636 19.562 31.612 18.103 C 31.599 16.657 32.622 16.008 33.993 16.507 C 35.402 17.031 35.677 17.529 35.552 19.237 C 35.515 19.711 35.652 20.197 35.714 20.671 C 35.876 20.646 36.051 20.634 36.213 20.609 C 36.213 20.06 36.2 19.512 36.213 18.963 C 36.225 18.439 36.238 17.903 36.275 17.38 C 36.275 17.355 36.674 17.317 36.687 17.342 C 36.836 17.903 37.011 18.452 37.073 19.025 C 37.123 19.462 37.011 19.911 36.999 20.359 C 36.986 20.958 36.999 21.569 36.999 22.167 C 37.211 22.279 37.435 22.404 37.647 22.516 C 37.734 22.242 37.921 21.968 37.896 21.706 C 37.784 20.26 37.697 18.789 37.41 17.367 C 37.323 16.968 36.537 16.756 36.138 16.382 C 35.627 15.884 35.141 15.335 34.729 14.749 C 34.342 14.188 34.068 13.552 33.719 12.916 C 35.103 12.667 36.076 11.894 36.25 10.423 C 36.437 8.889 36.25 7.368 34.617 6.72 C 33.47 6.271 32.173 6.059 30.938 6.022 C 27.933 5.922 24.928 5.984 21.897 5.984 L 21.897 20.397 C 22.671 20.484 22.795 20.16 22.646 19.462 C 22.521 18.739 22.234 17.891 23.431 17.068 Z M 90.719 17.654 C 90.832 17.729 90.944 17.804 91.069 17.891 C 91.069 18.252 90.981 18.639 91.094 18.963 C 91.168 19.163 91.53 19.262 91.754 19.412 C 91.929 18.926 92.178 18.589 92.727 18.427 C 93.051 18.327 93.251 17.829 93.575 17.741 C 96.131 17.056 98.064 15.771 98.538 12.929 C 98.95 10.448 97.989 7.456 94.984 6.446 C 92.577 5.635 90.171 5.623 87.776 6.109 C 86.23 6.433 84.671 7.082 83.886 8.715 C 82.128 12.368 83.337 15.722 87.141 17.479 C 86.991 18.477 86.729 19.499 86.729 20.534 C 86.729 20.995 87.19 21.768 87.552 21.843 C 88.275 21.98 88.388 21.307 88.313 20.684 C 88.188 19.661 88.063 18.639 87.926 17.592 C 88.774 17.517 89.385 17.642 89.348 18.552 C 89.298 19.674 89.161 20.783 89.136 21.905 C 89.123 22.317 89.298 22.741 89.485 23.115 C 89.522 23.19 90.108 23.165 90.133 23.077 C 90.258 22.728 90.32 22.342 90.295 21.968 C 90.233 20.796 90.083 19.636 90.059 18.464 C 90.071 18.178 90.495 17.916 90.719 17.654 Z M 32.472 36.904 C 37.996 36.293 38.919 30.957 36.836 27.478 C 35.814 25.77 34.056 25.272 32.21 25.845 C 31.624 26.032 30.764 25.995 30.265 25.696 C 28.906 24.873 27.671 25.172 26.237 25.509 C 21.698 26.606 21.361 33.301 24.129 35.146 C 26.1 36.455 26.499 37.652 26.025 39.659 C 25.938 40.046 26.212 40.557 26.436 40.943 C 26.499 41.043 27.21 40.956 27.284 40.806 C 27.484 40.37 27.596 39.834 27.559 39.36 C 27.509 38.537 27.322 37.727 27.21 36.941 C 28.506 36.605 28.731 37.378 28.706 38.188 C 28.669 39.51 28.519 40.831 28.419 42.153 C 29.579 42.265 29.729 42.065 29.616 41.081 C 29.467 39.697 29.404 38.3 29.305 36.929 C 31.188 36.729 29.778 38.525 30.863 38.762 C 31.337 38.201 31.824 37.639 32.472 36.904 Z M 84.26 25.384 C 84.297 25.945 84.41 26.693 84.385 27.441 C 84.26 32.316 84.771 37.203 83.923 42.053 C 83.836 42.564 83.599 43.449 84.597 43.412 C 85.557 43.387 85.432 42.564 85.37 41.941 C 85.258 40.769 84.971 39.609 84.921 38.437 C 84.871 37.066 85.37 36.617 86.729 36.605 C 88.774 36.592 90.819 36.642 92.864 36.592 C 93.849 36.567 94.186 37.103 94.199 37.914 C 94.199 38.674 93.987 39.435 93.999 40.195 C 94.012 40.582 94.298 40.956 94.46 41.342 L 94.947 41.193 C 94.947 40.806 94.972 40.42 94.947 40.033 C 94.884 39.061 94.722 38.088 94.747 37.116 C 94.76 36.804 95.259 36.505 95.533 36.206 C 95.82 36.492 96.306 36.754 96.368 37.091 C 96.481 37.664 96.269 38.3 96.306 38.899 C 96.331 39.335 96.506 39.759 96.618 40.195 C 96.78 40.17 96.942 40.145 97.117 40.121 L 97.117 33.563 L 88.911 33.563 L 88.911 32.553 L 95.583 32.553 L 95.583 29.398 L 88.924 29.398 L 88.924 28.351 L 96.792 28.351 L 96.792 25.359 C 92.565 25.384 88.388 25.384 84.26 25.384 Z M 13.617 17.829 C 13.655 18.153 13.729 18.39 13.717 18.626 C 13.642 19.724 13.505 20.808 13.48 21.905 C 13.468 22.23 13.779 22.554 13.954 22.878 C 14.178 22.541 14.565 22.23 14.59 21.881 C 14.64 21.207 14.54 20.497 14.415 19.823 C 14.029 17.779 14.041 17.729 15.974 17.292 C 16.086 17.268 16.224 17.28 16.336 17.255 C 18.418 16.719 20.077 14.824 20.077 13.241 C 18.356 13.091 16.647 12.941 14.927 12.792 C 14.44 14.138 13.206 15.023 12.034 14.799 C 10.624 14.525 9.565 13.216 9.565 11.744 C 9.565 10.485 10.525 9.114 11.497 8.952 C 13.405 8.64 14.39 9.189 14.827 10.572 C 16.598 10.485 18.306 10.398 20.039 10.311 C 19.553 8.229 18.431 6.732 16.273 6.196 C 15.687 6.047 15.089 5.959 14.478 5.885 C 12.221 5.623 9.951 5.673 7.881 6.608 C 5.898 7.505 4.851 9.101 4.826 11.433 C 4.801 14.038 5.562 16.033 8.056 17.118 C 8.717 17.405 9.415 17.604 10.026 17.816 C 10.275 19.262 9.702 20.659 10.2 21.943 C 10.388 21.943 10.562 21.943 10.749 21.93 L 10.749 17.804 L 11.198 17.804 C 11.248 18.789 11.298 19.761 11.36 20.746 L 11.784 20.746 L 11.784 17.829 Z M 20.763 25.322 L 7.457 25.322 L 7.457 28.389 L 13.642 28.389 C 11.211 30.433 8.991 32.303 6.821 34.124 L 6.821 36.729 L 20.488 36.729 L 20.488 33.538 L 14.191 33.538 C 16.56 31.58 18.693 29.822 20.763 28.114 Z M 58.933 13.365 L 65.218 13.365 C 66.49 13.365 67.824 12.48 68.174 11.433 C 68.797 9.588 68.435 7.855 67.251 6.994 C 66.989 6.807 66.702 6.595 66.403 6.545 C 65.081 6.346 63.747 6.084 62.412 6.047 C 59.731 5.972 57.038 6.022 54.319 6.022 C 54.357 6.358 54.444 6.695 54.444 7.044 C 54.457 10.996 54.469 14.949 54.444 18.901 C 54.444 19.661 54.22 20.422 54.22 21.182 C 54.22 21.444 54.594 21.694 54.793 21.955 C 55.005 21.718 55.342 21.494 55.417 21.22 C 55.504 20.846 55.392 20.422 55.367 20.01 C 55.305 19.212 55.23 18.427 55.155 17.592 L 56.601 17.592 C 56.514 18.377 56.389 19.063 56.389 19.749 C 56.389 19.973 56.664 20.21 56.813 20.447 C 56.963 20.21 57.237 19.973 57.237 19.736 C 57.237 19.025 57.138 18.315 57.088 17.604 C 57.212 17.517 57.337 17.417 57.462 17.33 C 57.923 17.654 58.397 17.966 58.958 18.352 C 58.933 16.756 58.933 15.111 58.933 13.365 Z M 71.316 11.458 L 70.942 11.383 C 70.767 11.632 70.555 11.869 70.418 12.143 C 69.695 13.565 68.76 14.824 67.151 15.173 C 65.617 15.51 64.009 15.821 62.475 15.684 C 61.228 15.572 61.265 16.058 61.34 16.856 C 61.477 18.315 61.178 19.549 59.956 20.534 C 59.357 21.02 59.008 21.793 58.297 22.778 C 63.048 22.94 67.425 23.077 71.84 23.227 C 71.753 22.03 71.628 21.033 71.615 20.035 C 71.59 17.791 71.653 15.547 71.628 13.315 C 71.615 12.692 71.416 12.081 71.316 11.458 Z M 48.084 17.741 C 47.985 17.442 47.885 17.268 47.885 17.093 C 47.847 16.071 47.436 14.836 47.872 14.063 C 49.394 11.333 51.214 8.765 53.023 5.959 L 48.084 5.959 C 47.299 7.281 46.513 8.603 45.64 10.086 C 44.78 8.603 44.007 7.269 43.296 6.034 L 38.196 6.034 C 39.443 8.054 40.453 9.999 41.762 11.744 C 43.109 13.527 43.658 15.41 43.358 17.579 C 43.234 18.464 43.096 19.35 43.022 20.235 C 42.997 20.534 43.121 20.833 43.184 21.145 C 43.458 21.07 43.732 20.983 44.019 20.908 C 44.917 20.659 44.668 19.936 44.668 19.325 C 44.668 17.405 45.141 17.031 47.087 17.442 C 47.349 17.504 47.635 17.604 48.084 17.741 Z M 73.411 9.251 C 73.411 12.854 73.399 16.42 73.424 19.985 C 73.424 20.384 73.586 20.783 73.673 21.195 C 73.81 21.17 73.947 21.145 74.097 21.12 C 74.097 20.422 74.072 19.724 74.109 19.013 C 74.147 18.178 75.244 17.38 76.142 17.529 C 77.165 17.704 76.99 18.377 76.815 19.113 C 76.728 19.524 76.853 19.985 76.878 20.422 C 77.065 20.422 77.239 20.434 77.426 20.434 C 77.476 19.524 77.526 18.602 77.576 17.691 C 78.436 19.262 77.027 21.07 77.988 22.616 C 78.112 22.616 78.237 22.604 78.362 22.604 L 78.362 9.276 L 82.365 9.276 L 82.365 5.959 L 69.595 5.959 L 69.595 9.251 Z M 77.077 26.107 C 77.015 26.344 76.977 26.419 76.965 26.494 C 76.828 30.994 76.691 35.495 76.591 40.008 C 76.591 40.258 76.94 40.519 77.14 40.769 C 77.339 40.482 77.676 40.195 77.688 39.896 C 77.726 39.298 77.514 38.699 77.539 38.101 C 77.576 37.203 77.863 36.468 78.973 36.343 C 80.157 36.206 80.793 36.767 80.906 37.839 C 81.018 38.799 80.918 39.784 80.943 40.769 C 80.955 41.18 81.018 41.579 81.055 41.978 C 81.205 41.966 81.354 41.966 81.504 41.953 L 81.504 25.047 C 80.107 25.384 78.599 25.745 77.077 26.107 Z M 52.449 12.156 C 52.287 12.131 52.112 12.118 51.95 12.094 C 51.788 12.318 51.638 12.555 51.451 12.754 C 50.341 13.964 49.718 15.21 50.042 16.993 C 50.379 18.851 49.531 19.649 47.611 19.985 C 47.349 20.035 46.987 20.26 46.9 20.484 C 46.451 21.644 47.112 22.629 48.371 22.678 C 49.543 22.728 50.716 22.691 52.075 22.691 C 52.2 19.25 52.324 15.709 52.449 12.156 Z M 80.906 12.43 C 80.781 12.443 80.644 12.455 80.519 12.468 C 79.995 15.946 80.556 19.387 80.968 22.903 C 82.015 22.903 82.901 22.841 83.786 22.915 C 84.908 23.015 84.983 22.392 84.859 21.556 C 84.784 21.008 84.572 20.409 84.684 19.898 C 84.896 18.988 84.497 18.489 83.923 17.891 C 83.262 17.205 82.651 16.445 82.215 15.609 C 81.679 14.612 81.329 13.502 80.906 12.43 Z M 41.263 22.604 C 41.151 21.506 41.026 20.571 40.976 19.624 C 40.927 18.614 40.814 17.567 41.001 16.582 C 41.351 14.786 40.49 13.465 39.542 12.143 C 39.368 11.906 38.732 11.682 38.707 11.719 C 38.196 12.43 37.635 13.153 37.373 13.964 C 37.298 14.213 38.034 14.836 38.495 15.123 C 39.493 15.746 40.104 16.432 40.029 17.741 C 39.941 19.1 40.153 20.484 40.228 21.856 C 40.266 22.678 40.715 22.778 41.263 22.604 Z M 19.827 18.165 C 16.697 19.711 16.535 20.023 17.121 22.915 L 20.788 22.915 C 20.862 22.816 20.937 22.716 21 22.616 C 19.678 21.432 19.366 19.936 19.827 18.165 Z M 26.998 22.865 C 27.846 23.115 28.681 23.377 28.881 22.242 C 28.955 21.843 28.731 21.12 28.432 20.97 C 27.808 20.671 27.122 21.581 26.998 22.865 Z" fill="#A5A5A7"></path><path d="M 64.807 33.687 L 64.807 32.453 C 66.253 32.453 67.675 32.416 69.084 32.49 C 69.371 32.503 69.633 32.939 69.907 33.176 C 69.62 33.351 69.346 33.65 69.059 33.662 C 67.675 33.712 66.303 33.687 64.807 33.687 Z M 64.832 29.511 L 64.832 28.314 C 66.079 28.314 67.251 28.276 68.423 28.339 C 68.697 28.351 68.947 28.725 69.209 28.925 C 68.934 29.112 68.672 29.448 68.398 29.473 C 67.251 29.548 66.116 29.511 64.832 29.511 Z M 26.661 8.964 C 27.895 8.964 29.043 8.864 30.165 9.014 C 30.689 9.076 31.15 9.612 31.636 9.937 C 31.15 10.261 30.701 10.809 30.177 10.872 C 29.018 11.009 27.821 10.922 26.648 10.922 C 26.661 10.211 26.661 9.6 26.661 8.964 Z M 90.894 8.952 C 92.752 8.952 93.737 9.949 93.725 11.807 C 93.712 13.59 92.615 14.737 90.882 14.774 C 89.173 14.811 88.076 13.664 88.076 11.807 C 88.063 9.924 89.024 8.952 90.894 8.952 Z M 32.871 31.007 C 32.859 32.952 31.948 33.924 30.115 33.912 C 28.319 33.899 27.309 32.839 27.334 30.969 C 27.359 29.124 28.394 28.039 30.153 28.039 C 31.873 28.039 32.883 29.137 32.871 31.007 Z M 59.095 10.847 L 59.095 9.002 C 60.268 9.002 61.477 8.927 62.649 9.039 C 63.048 9.076 63.398 9.612 63.759 9.924 C 63.348 10.223 62.949 10.747 62.5 10.797 C 61.402 10.934 60.268 10.847 59.095 10.847 Z" fill="#A5A5A7"></path></svg>