<svg xmlns="http://www.w3.org/2000/svg" width="78" height="60"><path d="M 32.178 25.515 L 37.724 20.577 L 20.072 4.891 Z M 32.941 26.815 L 38.845 36.871 L 57.617 4.891 Z M 19.965 2.815 L 38.833 19.598 L 57.713 2.815 Z M 10.734 45.71 L 7.728 53.928 L 7.478 54.799 L 7.239 53.917 L 4.246 45.71 L 2.373 45.71 L 6.667 56.66 L 8.301 56.66 L 12.594 45.71 Z M 22.887 51.149 L 25.821 45.71 L 27.777 45.71 L 23.734 52.831 L 23.734 56.66 L 21.993 56.66 L 21.993 52.724 L 18.009 45.71 L 19.965 45.71 Z" fill="#A5A5A7"></path><g transform="translate(2.373 2.815)"><path d="M 0 -0 L 73.372 -0 L 73.372 55.038 L 0 55.038 Z" fill="transparent"></path><path d="M 33.693 48.203 L 36.006 48.203 C 36.734 48.203 37.318 48.036 37.748 47.69 C 38.177 47.344 38.392 46.879 38.392 46.294 C 38.392 45.662 38.177 45.185 37.76 44.839 C 37.342 44.493 36.734 44.326 35.947 44.326 L 33.693 44.326 Z M 36.317 49.622 L 33.693 49.622 L 33.693 53.845 L 31.951 53.845 L 31.951 42.895 L 35.959 42.895 C 37.294 42.895 38.32 43.181 39.036 43.765 C 39.763 44.35 40.121 45.173 40.121 46.235 C 40.121 47.666 39.382 48.656 37.915 49.217 L 40.622 53.75 L 40.622 53.845 L 38.761 53.845 Z M 54.827 48.048 C 54.827 46.807 54.552 45.853 54.016 45.197 C 53.479 44.541 52.728 44.207 51.75 44.207 C 50.807 44.207 50.068 44.541 49.507 45.209 C 48.959 45.877 48.684 46.831 48.684 48.072 L 48.684 48.692 C 48.684 49.909 48.959 50.863 49.507 51.543 C 50.056 52.211 50.807 52.545 51.75 52.545 C 52.728 52.545 53.479 52.211 54.004 51.555 C 54.54 50.887 54.803 49.932 54.803 48.692 L 54.803 48.048 Z M 56.544 48.692 C 56.544 50.326 56.115 51.626 55.244 52.569 C 54.373 53.511 53.217 53.988 51.761 53.988 C 50.33 53.988 49.173 53.511 48.279 52.545 C 47.396 51.59 46.967 50.278 46.967 48.632 L 46.967 48.048 C 46.967 46.425 47.408 45.137 48.279 44.171 C 49.161 43.205 50.306 42.728 51.75 42.728 C 53.205 42.728 54.373 43.205 55.232 44.159 C 56.103 45.113 56.532 46.39 56.544 47.988 Z" fill="#a5a5a7"></path></g><path d="M 75.388 56.66 L 73.659 56.66 L 67.97 48.429 L 67.97 56.66 L 66.24 56.66 L 66.24 45.71 L 67.97 45.71 L 73.659 53.952 L 73.659 45.71 L 75.388 45.71 Z" fill="#a5a5a7"></path></svg>