<svg xmlns="http://www.w3.org/2000/svg" width="166" height="14"><path d="M 3.024 2.296 L 8.133 2.296 C 8.17 2.296 8.188 2.315 8.188 2.352 L 8.188 4.723 C 8.188 4.76 8.17 4.779 8.133 4.779 L 4.094 4.779 L 4.094 5.217 L 6.765 5.217 C 7.016 5.451 7.49 5.927 8.188 6.645 L 8.188 9.193 C 7.956 9.445 7.481 9.921 6.765 10.621 L 1.656 10.621 C 1.619 10.621 1.6 10.603 1.6 10.565 L 1.6 8.185 C 1.6 8.148 1.619 8.129 1.656 8.129 L 5.723 8.129 L 5.723 7.691 L 3.024 7.691 C 2.773 7.457 2.298 6.981 1.6 6.263 L 1.6 3.724 C 1.833 3.463 2.308 2.987 3.024 2.296 Z M 16.433 2.268 C 16.488 2.268 16.609 3.145 16.786 4.891 C 16.805 4.919 17.047 6.813 17.503 10.575 L 17.447 10.603 L 15.055 10.603 C 14.99 10.603 14.888 9.884 14.748 8.437 C 14.73 8.437 14.72 8.353 14.702 8.185 L 13.325 8.185 C 13.157 9.679 13.055 10.481 13.018 10.603 L 10.608 10.603 C 10.57 10.603 10.552 10.584 10.552 10.547 C 11.157 5.46 11.501 2.697 11.566 2.268 Z M 13.771 4.741 L 13.641 5.712 L 14.404 5.712 L 14.302 4.741 Z M 19.94 2.268 L 22.332 2.268 C 22.434 2.38 22.713 2.884 23.169 3.799 L 24.035 5.357 C 24.779 3.948 25.328 2.921 25.682 2.277 L 28.092 2.277 C 28.129 2.277 28.147 2.296 28.147 2.324 L 28.147 10.547 C 28.147 10.584 28.129 10.603 28.092 10.603 L 25.7 10.603 C 25.672 10.603 25.654 10.584 25.654 10.547 L 25.654 7.569 L 25.626 7.569 C 25.17 8.475 24.9 8.969 24.816 9.044 L 23.216 9.044 C 23.095 8.895 22.816 8.409 22.406 7.569 L 22.378 7.569 L 22.378 10.547 C 22.378 10.584 22.36 10.603 22.323 10.603 L 19.931 10.603 C 19.894 10.603 19.875 10.584 19.875 10.547 L 19.875 2.315 C 19.894 2.287 19.913 2.268 19.94 2.268 Z M 30.585 2.268 L 33.219 2.268 C 33.265 2.268 33.461 2.837 33.823 3.967 L 33.851 3.967 C 34.149 2.903 34.326 2.343 34.391 2.268 L 37.08 2.268 C 37.08 2.343 36.41 3.864 35.07 6.851 C 35.052 7.439 35.042 7.859 35.042 8.129 L 35.042 10.575 C 35.042 10.603 35.024 10.621 34.996 10.621 L 32.604 10.621 C 32.567 10.621 32.549 10.603 32.549 10.575 L 32.549 6.935 C 32.549 6.897 31.869 5.348 30.52 2.296 Z M 44.291 2.268 L 46.655 2.268 C 46.683 2.268 46.701 2.287 46.701 2.315 L 46.701 8.129 L 49.242 8.129 C 49.279 8.129 49.298 8.148 49.298 8.185 L 49.298 10.547 C 49.298 10.584 49.279 10.603 49.242 10.603 L 44.291 10.603 C 44.254 10.603 44.236 10.584 44.236 10.547 L 44.236 2.315 C 44.254 2.287 44.264 2.268 44.291 2.268 Z M 53.354 2.24 L 56.453 2.24 C 57.104 2.875 57.663 3.435 58.128 3.929 L 58.128 8.923 C 57.495 9.576 56.937 10.136 56.453 10.603 L 53.354 10.603 C 52.703 9.968 52.145 9.408 51.68 8.923 L 51.68 3.929 C 52.312 3.276 52.871 2.707 53.354 2.24 Z M 54.173 4.741 L 54.173 8.129 L 55.643 8.129 L 55.643 4.741 Z M 59.598 2.268 L 62.241 2.268 C 62.287 2.268 62.483 2.837 62.846 3.967 L 62.873 3.967 C 63.171 2.903 63.348 2.343 63.413 2.268 L 66.102 2.268 C 66.102 2.343 65.432 3.864 64.092 6.851 C 64.074 7.439 64.064 7.859 64.064 8.129 L 64.064 10.575 C 64.064 10.603 64.046 10.621 64.018 10.621 L 61.627 10.621 C 61.589 10.621 61.571 10.603 61.571 10.575 L 61.571 6.935 C 61.571 6.897 60.891 5.348 59.542 2.296 Z M 73.379 2.268 C 73.435 2.268 73.555 3.145 73.732 4.891 C 73.751 4.919 73.993 6.813 74.449 10.575 L 74.393 10.603 L 72.002 10.603 C 71.936 10.603 71.834 9.884 71.695 8.437 C 71.676 8.437 71.667 8.353 71.648 8.185 L 70.271 8.185 C 70.103 9.679 70.001 10.481 69.964 10.603 L 67.554 10.603 C 67.517 10.603 67.498 10.584 67.498 10.547 C 68.103 5.46 68.447 2.697 68.512 2.268 Z M 70.708 4.741 L 70.578 5.712 L 71.341 5.712 L 71.239 4.741 Z M 76.877 2.268 L 79.241 2.268 C 79.269 2.268 79.287 2.287 79.287 2.315 L 79.287 8.129 L 81.828 8.129 C 81.865 8.129 81.883 8.148 81.883 8.185 L 81.883 10.547 C 81.883 10.584 81.865 10.603 81.828 10.603 L 76.877 10.603 C 76.84 10.603 76.822 10.584 76.822 10.547 L 76.822 2.315 C 76.831 2.287 76.849 2.268 76.877 2.268 Z M 84.703 5.273 L 89.42 5.273 C 89.448 5.273 89.467 5.292 89.467 5.32 L 89.467 7.541 C 89.467 7.569 89.448 7.588 89.42 7.588 L 84.703 7.588 C 84.675 7.588 84.656 7.569 84.656 7.541 L 84.656 5.32 C 84.666 5.292 84.675 5.273 84.703 5.273 Z M 91.97 2.156 L 97.972 2.156 C 98.009 2.156 98.027 2.175 98.027 2.203 L 98.027 4.639 C 98.027 4.676 98.009 4.695 97.972 4.695 L 94.445 4.695 L 94.445 5.161 L 96.408 5.161 C 96.436 5.161 96.455 5.18 96.455 5.217 L 96.455 7.644 C 96.455 7.681 96.436 7.7 96.408 7.7 L 94.445 7.7 L 94.445 10.659 C 94.445 10.696 94.426 10.715 94.399 10.715 L 91.97 10.715 C 91.933 10.715 91.914 10.696 91.914 10.659 L 91.914 2.203 C 91.923 2.175 91.942 2.156 91.97 2.156 Z M 101.973 2.128 L 105.164 2.128 C 105.834 2.781 106.411 3.36 106.886 3.855 L 106.886 8.988 C 106.244 9.66 105.667 10.229 105.164 10.715 L 101.973 10.715 C 101.303 10.071 100.735 9.492 100.251 8.988 L 100.251 3.855 C 100.903 3.183 101.47 2.604 101.973 2.128 Z M 102.81 4.695 L 102.81 8.176 L 104.327 8.176 L 104.327 4.695 Z M 109.379 2.128 L 114.544 2.128 C 115 2.567 115.511 3.08 116.079 3.668 L 116.079 6.627 L 115.53 7.196 L 116.051 7.747 L 116.051 10.649 C 116.051 10.687 116.033 10.705 115.995 10.705 L 113.576 10.705 C 113.539 10.705 113.52 10.687 113.52 10.649 L 113.52 8.195 L 111.873 8.195 L 111.873 10.659 C 111.873 10.696 111.855 10.715 111.827 10.715 L 109.37 10.715 C 109.333 10.715 109.314 10.696 109.314 10.659 L 109.314 2.175 C 109.333 2.137 109.352 2.128 109.379 2.128 Z M 111.883 4.695 L 111.883 5.637 L 113.557 5.637 L 113.557 4.695 Z M 118.582 2.156 L 124.593 2.156 C 124.621 2.156 124.64 2.175 124.64 2.203 L 124.64 4.639 C 124.64 4.676 124.621 4.695 124.593 4.695 L 121.066 4.695 L 121.066 5.161 L 123.021 5.161 C 123.058 5.161 123.076 5.18 123.076 5.217 L 123.076 7.644 C 123.076 7.681 123.058 7.7 123.021 7.7 L 121.066 7.7 L 121.066 8.148 L 124.593 8.148 C 124.621 8.148 124.64 8.167 124.64 8.195 L 124.64 10.659 C 124.64 10.696 124.621 10.715 124.593 10.715 L 118.582 10.715 C 118.554 10.715 118.536 10.696 118.536 10.659 L 118.536 2.203 C 118.536 2.175 118.554 2.156 118.582 2.156 Z M 127.143 2.156 L 133.144 2.156 C 133.182 2.156 133.2 2.175 133.2 2.203 L 133.2 4.639 C 133.2 4.676 133.182 4.695 133.144 4.695 L 129.618 4.695 L 129.618 5.161 L 131.581 5.161 C 131.609 5.161 131.628 5.18 131.628 5.217 L 131.628 7.644 C 131.628 7.681 131.609 7.7 131.581 7.7 L 129.618 7.7 L 129.618 10.659 C 129.618 10.696 129.599 10.715 129.571 10.715 L 127.143 10.715 C 127.105 10.715 127.087 10.696 127.087 10.659 L 127.087 2.203 C 127.096 2.175 127.115 2.156 127.143 2.156 Z M 135.703 2.156 L 138.132 2.156 C 138.16 2.156 138.178 2.175 138.178 2.203 L 138.178 8.176 L 140.784 8.176 C 140.821 8.176 140.839 8.195 140.839 8.232 L 140.839 10.659 C 140.839 10.696 140.821 10.715 140.784 10.715 L 135.694 10.715 C 135.657 10.715 135.638 10.696 135.638 10.659 L 135.638 2.203 C 135.657 2.175 135.675 2.156 135.703 2.156 Z M 143.342 2.156 L 145.771 2.156 C 145.799 2.156 145.818 2.175 145.818 2.203 L 145.818 10.659 C 145.818 10.696 145.799 10.715 145.771 10.715 L 143.342 10.715 C 143.305 10.715 143.287 10.696 143.287 10.659 L 143.287 2.203 C 143.296 2.175 143.315 2.156 143.342 2.156 Z M 148.321 2.156 L 154.332 2.156 C 154.36 2.156 154.378 2.175 154.378 2.203 L 154.378 4.639 C 154.378 4.676 154.36 4.695 154.332 4.695 L 150.805 4.695 L 150.805 5.161 L 152.759 5.161 C 152.796 5.161 152.815 5.18 152.815 5.217 L 152.815 7.644 C 152.815 7.681 152.796 7.7 152.759 7.7 L 150.805 7.7 L 150.805 8.148 L 154.332 8.148 C 154.36 8.148 154.378 8.167 154.378 8.195 L 154.378 10.659 C 154.378 10.696 154.36 10.715 154.332 10.715 L 148.321 10.715 C 148.293 10.715 148.274 10.696 148.274 10.659 L 148.274 2.203 C 148.274 2.175 148.293 2.156 148.321 2.156 Z M 158.286 2.175 L 163.534 2.175 C 163.571 2.175 163.59 2.193 163.59 2.231 L 163.59 4.657 C 163.59 4.695 163.571 4.713 163.534 4.713 L 159.384 4.713 L 159.384 5.161 L 162.129 5.161 C 162.39 5.395 162.874 5.889 163.59 6.627 L 163.59 9.24 C 163.357 9.501 162.864 9.987 162.129 10.705 L 156.881 10.705 C 156.844 10.705 156.825 10.687 156.825 10.649 L 156.825 8.223 C 156.825 8.185 156.844 8.167 156.881 8.167 L 161.05 8.167 L 161.05 7.719 L 158.286 7.719 C 158.026 7.485 157.542 6.991 156.825 6.253 L 156.825 3.64 C 157.058 3.379 157.542 2.893 158.286 2.175 Z" fill="#A5A5A7"></path></svg>