<svg xmlns="http://www.w3.org/2000/svg" width="126" height="53"><path d="M 48.261 22.621 L 48.261 8.172 C 48.261 7.535 48.467 7.313 49.102 7.313 C 52.893 7.313 56.685 7.269 60.477 7.328 C 62.425 7.358 64.372 7.639 66.157 8.542 C 68.297 9.608 69.536 11.34 69.934 13.694 C 70.2 15.337 70.185 16.951 69.625 18.535 C 69.226 19.66 68.518 20.563 67.53 21.23 C 67.264 21.422 66.954 21.57 66.689 21.763 C 66.556 21.866 66.393 22.029 66.393 22.162 C 66.393 22.296 66.57 22.458 66.718 22.547 C 68.311 23.421 69.462 24.664 70.082 26.396 C 70.539 27.67 70.569 28.972 70.51 30.29 C 70.436 31.992 69.92 33.532 68.813 34.835 C 67.898 35.901 66.733 36.597 65.434 37.115 C 63.738 37.796 61.967 38.062 60.152 38.077 C 56.508 38.092 52.879 38.077 49.234 38.062 C 48.393 38.062 48.261 37.899 48.261 37.041 L 48.261 24.827 C 48.275 24.116 48.275 23.376 48.261 22.621 C 48.275 22.621 48.261 22.621 48.261 22.621 Z M 54.28 28.913 L 54.28 32.259 C 54.28 32.747 54.472 32.925 54.959 32.91 C 55.638 32.896 56.302 32.881 56.98 32.881 C 58.338 32.866 59.71 32.925 61.067 32.836 C 62.38 32.747 63.443 32.126 64.062 30.912 C 64.564 29.949 64.652 28.972 64.446 27.892 C 64.166 26.396 62.838 25.079 61.244 24.99 C 59.12 24.872 56.966 24.946 54.841 24.916 C 54.413 24.916 54.295 25.138 54.295 25.523 C 54.28 26.648 54.28 27.788 54.28 28.913 Z M 54.28 16.166 L 54.28 19.216 C 54.28 19.912 54.428 20.06 55.151 20.06 C 56.508 20.06 57.88 20.104 59.238 20.045 C 60.064 20.016 60.92 19.927 61.716 19.72 C 64.298 19.024 64.933 15.87 63.472 13.946 C 62.616 12.835 61.377 12.48 60.049 12.451 C 58.367 12.406 56.685 12.421 55.003 12.421 C 54.472 12.421 54.28 12.613 54.28 13.146 Z M 99.251 22.399 C 99.251 20.386 99.192 18.372 99.266 16.359 C 99.339 14.523 99.959 12.835 101.007 11.311 C 102.57 9.06 104.813 7.876 107.395 7.284 C 109.269 6.854 111.187 6.81 113.061 7.136 C 115.436 7.55 117.634 8.453 119.331 10.289 C 120.984 12.08 121.795 14.227 121.825 16.67 C 121.825 17.277 121.692 17.395 121.087 17.44 C 119.611 17.528 118.136 17.617 116.646 17.721 C 115.952 17.765 115.864 17.691 115.82 16.981 C 115.716 15.056 114.846 13.591 113.164 12.658 C 112.397 12.228 111.541 12.125 110.685 12.11 C 108.885 12.051 107.336 12.584 106.215 14.064 C 105.521 14.967 105.197 16.018 105.197 17.129 C 105.182 20.948 105.138 24.768 105.241 28.587 C 105.3 30.734 106.48 32.289 108.516 32.999 C 109.593 33.369 110.744 33.428 111.925 33.162 C 113.43 32.822 114.492 32.007 115.244 30.704 C 115.643 29.994 115.79 29.224 115.805 28.425 C 115.82 27.951 116.056 27.684 116.528 27.714 C 118.121 27.803 119.715 27.906 121.323 27.98 C 121.751 27.995 121.854 28.203 121.839 28.602 C 121.81 31.326 120.836 33.665 118.874 35.546 C 117.9 36.478 116.72 37.1 115.451 37.603 C 113.267 38.477 111.01 38.551 108.752 38.329 C 105.964 38.062 103.5 36.982 101.597 34.82 C 100.416 33.473 99.59 31.918 99.413 30.157 C 99.207 28.188 99.236 26.189 99.177 24.191 C 99.162 23.598 99.177 23.006 99.177 22.414 C 99.221 22.399 99.236 22.399 99.251 22.399 Z M 87.787 25.256 L 87.787 37.026 C 87.787 38.003 87.684 38.092 86.68 38.077 C 85.485 38.062 84.29 38.062 83.095 38.077 C 81.9 38.092 81.782 37.988 81.782 36.804 L 81.782 13.383 C 81.782 12.539 81.664 12.451 80.808 12.451 C 78.58 12.451 76.367 12.451 74.139 12.436 C 73.534 12.436 73.402 12.288 73.387 11.681 C 73.372 10.482 73.372 9.282 73.387 8.083 C 73.387 7.476 73.564 7.299 74.169 7.299 L 95.592 7.299 C 96.226 7.299 96.418 7.476 96.433 8.098 C 96.448 9.297 96.448 10.496 96.433 11.696 C 96.433 12.288 96.3 12.436 95.725 12.436 C 93.807 12.451 91.889 12.451 89.97 12.451 L 88.554 12.451 C 87.92 12.451 87.787 12.584 87.787 13.235 Z M 44.867 12.377 L 44.867 47.759 C 44.867 48.485 44.867 48.485 44.13 48.47 C 42.713 48.455 41.326 48.189 40.072 47.596 C 38.892 47.034 38.302 46.323 39.084 44.828 C 39.541 43.954 40.013 43.066 40.323 42.134 C 40.913 40.372 40.736 38.61 40.146 36.863 C 40.102 36.73 39.998 36.626 39.807 36.523 C 39.866 38.536 39.63 40.461 38.803 42.4 C 38.744 42.208 38.7 42.119 38.685 42.03 C 38.538 40.668 37.918 39.484 37.18 38.373 C 36.044 36.641 34.805 34.983 33.698 33.251 C 32.99 32.155 32.341 31.001 31.825 29.801 C 31.308 28.587 31.382 27.329 32.09 26.159 C 32.134 26.1 32.223 26.056 32.297 25.997 C 32.43 26.604 32.503 27.211 32.695 27.758 C 33.005 28.647 33.536 29.357 34.569 29.431 C 34.908 29.461 35.277 29.416 35.602 29.283 C 36.782 28.824 37.298 28.898 38.095 29.92 C 38.73 30.734 39.275 31.622 39.866 32.481 C 39.969 32.629 40.146 32.747 40.279 32.866 C 40.367 32.703 40.5 32.54 40.544 32.377 C 40.78 31.341 40.987 30.305 41.208 29.268 C 41.444 28.173 41.68 27.063 41.902 25.967 C 42.211 24.457 42.507 22.962 42.816 21.452 C 43.274 19.275 43.731 17.099 44.174 14.923 C 44.321 14.183 44.439 13.428 44.587 12.687 C 44.616 12.569 44.675 12.451 44.72 12.332 C 44.779 12.362 44.823 12.377 44.867 12.377 Z" fill="#A5A5A7"></path><path d="M 44.277 9.016 C 42.802 16.063 41.326 23.125 39.836 30.26 C 39.57 29.431 39.364 28.676 39.098 27.951 C 38.11 25.271 36.472 23.169 33.875 21.881 C 33.507 21.689 33.108 21.555 32.71 21.437 C 32.562 21.392 32.385 21.452 32.238 21.511 C 30.821 22.088 29.434 22.725 28.003 23.243 C 27.354 23.48 26.646 23.509 25.864 23.643 C 25.923 23.465 25.938 23.376 25.982 23.302 C 26.661 22.133 27.325 20.948 28.018 19.779 C 28.136 19.572 28.269 19.32 28.475 19.187 C 29.7 18.372 30.954 17.603 32.179 16.788 C 33.462 15.944 34.746 15.086 36.03 14.242 C 37.815 13.072 39.615 11.903 41.415 10.748 C 42.33 10.156 43.23 9.564 44.144 8.972 Z M 27.443 18.313 C 27.443 18.017 27.428 17.839 27.443 17.647 C 27.826 14.627 28.225 11.622 28.608 8.601 C 28.711 7.832 28.83 7.062 28.889 6.292 C 28.933 5.759 29.361 5.611 29.7 5.522 C 30.939 5.167 32.193 4.841 33.462 4.604 C 35.808 4.16 38.095 4.397 40.249 5.433 C 41.311 5.937 42.315 6.573 43.333 7.165 C 43.731 7.402 43.716 7.654 43.318 7.92 C 41.533 9.105 39.748 10.289 37.948 11.459 C 35.366 13.132 32.769 14.79 30.187 16.463 C 29.316 17.025 28.446 17.632 27.443 18.313 Z M 13.633 13.22 C 13.161 12.436 12.674 11.636 12.187 10.837 C 10.564 8.098 8.557 5.744 5.518 4.53 C 4.677 4.204 3.762 4.071 2.892 3.849 C 2.715 3.805 2.538 3.746 2.39 3.657 C 2.095 3.464 2.08 3.198 2.39 3.02 C 2.877 2.739 3.379 2.384 3.91 2.265 C 6.005 1.806 8.07 1.88 10.077 2.739 C 11.641 3.405 12.939 4.397 14.105 5.596 C 14.562 6.07 15.152 6.455 15.551 6.973 C 16.111 7.698 16.554 8.527 16.997 9.327 C 17.085 9.475 17.07 9.801 16.967 9.919 C 15.949 11 14.902 12.066 13.854 13.132 C 13.839 13.161 13.766 13.161 13.633 13.22 Z M 27.649 6.292 C 27.118 10.393 26.587 14.42 26.07 18.491 C 25.938 18.432 25.82 18.432 25.761 18.372 L 20.316 12.377 C 19.77 11.784 19.225 11.207 18.679 10.63 C 18.472 10.408 18.384 10.259 18.767 10.082 C 20.656 9.282 22.544 8.453 24.418 7.624 C 25.392 7.195 26.366 6.736 27.339 6.307 C 27.384 6.292 27.457 6.307 27.649 6.292 Z M 24.875 18.994 C 24.772 19.068 24.743 19.113 24.698 19.127 C 23.282 19.394 21.851 19.646 20.449 19.201 C 19.092 18.772 17.838 18.061 16.775 17.099 C 15.979 16.389 15.241 15.604 14.474 14.849 C 14.149 14.523 14.12 14.242 14.489 13.872 C 15.418 12.939 16.318 11.977 17.233 11.029 C 17.469 10.778 17.661 10.807 17.882 11.074 C 18.974 12.317 20.08 13.561 21.187 14.79 C 22.293 16.033 23.4 17.262 24.507 18.491 C 24.625 18.639 24.728 18.816 24.875 18.994 Z M 92.287 44.932 L 92.287 47.878 C 92.287 48.159 92.331 48.499 91.874 48.455 C 91.49 48.425 90.989 48.618 91.003 47.907 C 91.033 46.782 91.033 45.642 91.018 44.517 C 91.018 44.339 90.915 44.162 90.87 43.984 C 90.738 44.088 90.561 44.162 90.472 44.295 C 90.28 44.547 90.148 44.843 89.97 45.109 C 89.602 45.731 89.1 45.746 88.702 45.109 C 88.525 44.828 88.377 44.517 88.185 44.236 C 88.097 44.103 87.905 44.043 87.772 43.94 C 87.728 44.088 87.625 44.236 87.625 44.384 C 87.625 45.568 87.625 46.753 87.654 47.922 C 87.654 48.351 87.448 48.425 87.079 48.411 C 86.71 48.411 86.415 48.411 86.415 47.892 C 86.43 45.923 86.415 43.94 86.43 41.971 C 86.43 41.778 86.607 41.438 86.71 41.423 C 87.064 41.393 87.507 41.201 87.772 41.63 C 88.156 42.222 88.525 42.815 88.893 43.422 C 89.248 43.999 89.38 43.999 89.749 43.422 C 90.089 42.874 90.413 42.341 90.752 41.793 C 90.959 41.467 91.844 41.23 92.125 41.467 C 92.228 41.556 92.257 41.763 92.257 41.911 C 92.302 42.933 92.287 43.94 92.287 44.932 Z M 54.236 44.961 C 54.236 45.953 54.221 46.96 54.236 47.952 C 54.236 48.322 54.103 48.499 53.734 48.47 C 53.395 48.44 52.952 48.603 52.967 47.966 C 52.982 46.812 52.982 45.672 52.952 44.517 C 52.952 44.339 52.849 44.162 52.79 43.984 C 52.643 44.103 52.451 44.191 52.348 44.339 C 52.141 44.621 51.993 44.961 51.802 45.242 C 51.521 45.657 51.005 45.672 50.71 45.257 C 50.503 44.961 50.341 44.606 50.134 44.31 C 50.031 44.177 49.854 44.088 49.707 43.984 C 49.648 44.132 49.515 44.28 49.515 44.443 C 49.515 45.553 49.559 46.664 49.574 47.774 C 49.589 48.351 49.5 48.396 48.895 48.44 C 48.408 48.47 48.334 48.203 48.334 47.818 C 48.334 45.82 48.334 43.836 48.32 41.837 C 48.32 41.541 48.438 41.453 48.748 41.423 C 49.397 41.349 49.766 41.63 50.046 42.193 C 50.282 42.666 50.607 43.111 50.887 43.555 C 51.123 43.94 51.33 43.94 51.566 43.555 C 51.934 42.933 52.274 42.296 52.687 41.719 C 52.982 41.304 53.454 41.378 53.897 41.438 C 54.325 41.497 54.221 41.823 54.221 42.104 C 54.251 43.066 54.251 44.014 54.236 44.961 C 54.251 44.961 54.236 44.961 54.236 44.961 Z M 64.166 44.917 C 64.166 43.969 64.18 43.022 64.151 42.089 C 64.136 41.793 64.121 41.482 64.446 41.438 C 64.83 41.393 65.302 41.29 65.552 41.719 C 66.246 42.859 66.925 44.028 67.603 45.183 C 67.648 45.272 67.692 45.376 67.751 45.435 C 67.854 45.524 67.987 45.583 68.105 45.657 C 68.164 45.524 68.267 45.391 68.267 45.272 C 68.282 44.177 68.282 43.081 68.267 41.985 C 68.267 41.675 68.282 41.408 68.725 41.453 C 69.093 41.497 69.507 41.349 69.492 42 C 69.462 43.91 69.477 45.82 69.462 47.73 C 69.462 48.011 69.566 48.381 69.182 48.44 C 68.798 48.514 68.356 48.573 68.09 48.144 C 67.411 47.019 66.748 45.894 66.084 44.769 C 66.039 44.68 66.01 44.561 65.951 44.502 C 65.833 44.399 65.67 44.339 65.538 44.251 C 65.479 44.399 65.39 44.547 65.375 44.695 C 65.361 45.761 65.375 46.827 65.361 47.892 C 65.361 48.425 65.257 48.499 64.564 48.485 C 64.136 48.47 64.107 48.233 64.121 47.878 C 64.166 46.871 64.151 45.894 64.166 44.917 Z M 122.311 48.44 C 121.131 48.47 120.969 48.351 120.615 47.359 C 120.423 46.827 120.187 46.294 119.936 45.775 C 119.73 45.361 119.331 45.405 118.962 45.45 C 118.608 45.494 118.534 45.761 118.549 46.086 C 118.564 46.678 118.52 47.271 118.564 47.863 C 118.593 48.337 118.372 48.425 117.959 48.44 C 117.502 48.47 117.31 48.337 117.325 47.863 C 117.339 46.264 117.325 44.65 117.325 43.051 C 117.325 42.681 117.339 42.311 117.325 41.941 C 117.31 41.571 117.428 41.378 117.841 41.393 C 118.638 41.423 119.42 41.393 120.216 41.408 C 121.839 41.423 122.754 42.681 122.223 44.206 C 122.09 44.576 121.736 44.932 121.397 45.168 C 121.087 45.391 121.043 45.568 121.19 45.864 C 121.5 46.486 121.81 47.093 122.105 47.715 C 122.208 47.952 122.238 48.174 122.311 48.44 Z M 118.564 43.436 C 118.564 43.644 118.579 43.836 118.579 44.043 C 118.564 44.399 118.77 44.547 119.066 44.547 C 119.523 44.547 119.98 44.561 120.408 44.443 C 120.674 44.369 120.998 44.088 121.057 43.851 C 121.131 43.555 121.043 43.125 120.866 42.874 C 120.556 42.444 119.331 42.237 118.874 42.474 C 118.741 42.548 118.623 42.726 118.579 42.889 C 118.534 43.051 118.564 43.244 118.564 43.436 Z M 107.867 41.497 C 107.764 41.704 107.69 41.911 107.572 42.059 C 107.085 42.696 106.584 43.333 106.052 43.954 C 105.787 44.28 105.728 44.547 105.993 44.946 C 106.628 45.909 107.218 46.901 107.808 47.892 C 107.897 48.026 107.956 48.189 108.03 48.337 C 107.38 48.633 106.79 48.47 106.451 47.922 C 106.008 47.211 105.58 46.501 105.138 45.775 C 104.902 45.391 104.754 45.465 104.43 45.761 C 103.81 46.338 104.016 47.063 103.987 47.744 C 103.943 48.366 103.456 48.707 102.925 48.411 C 102.807 48.337 102.748 48.055 102.748 47.878 C 102.733 46.205 102.748 44.532 102.748 42.859 L 102.748 41.852 C 102.748 41.156 103.308 41.512 103.603 41.438 C 103.928 41.349 103.987 41.63 103.987 41.882 C 103.987 42.504 103.957 43.125 103.972 43.747 C 103.972 43.925 104.105 44.088 104.179 44.251 C 104.326 44.162 104.503 44.103 104.607 43.984 C 105.093 43.407 105.595 42.844 106.008 42.208 C 106.451 41.571 106.982 41.26 107.867 41.497 Z M 56.597 44.843 C 56.597 44.502 56.582 44.162 56.597 43.836 C 56.641 42.548 57.113 41.852 58.338 41.497 C 59.459 41.156 60.861 41.408 61.466 42.578 C 61.687 42.992 61.761 43.51 61.79 43.984 C 61.834 44.724 61.79 45.465 61.775 46.22 C 61.746 47.685 60.595 48.633 59.37 48.499 C 58.81 48.44 58.22 48.425 57.718 48.189 C 56.966 47.833 56.641 47.108 56.597 46.279 C 56.582 45.79 56.611 45.316 56.597 44.843 C 56.611 44.843 56.597 44.843 56.597 44.843 Z M 60.595 45.006 L 60.58 45.006 C 60.58 44.635 60.654 44.251 60.566 43.895 C 60.462 43.451 60.3 42.992 60.02 42.652 C 59.695 42.267 59.149 42.267 58.707 42.444 C 58.146 42.666 57.851 43.14 57.836 43.747 C 57.821 44.532 57.792 45.331 57.851 46.116 C 57.88 46.471 58.043 46.886 58.279 47.152 C 58.603 47.522 59.075 47.7 59.607 47.508 C 60.27 47.256 60.566 46.738 60.61 46.072 C 60.61 45.716 60.595 45.361 60.595 45.006 Z M 97.569 41.438 C 98.366 41.467 98.351 41.467 98.587 42.222 C 99.192 44.132 99.797 46.027 100.416 47.937 C 100.564 48.396 100.505 48.47 100.033 48.485 C 99.472 48.499 99.118 48.307 99 47.73 C 98.926 47.374 98.675 47.256 98.321 47.271 C 97.82 47.3 97.303 47.33 96.802 47.271 C 96.285 47.226 96.064 47.478 95.916 47.892 C 95.754 48.351 95.149 48.647 94.721 48.44 C 94.633 48.396 94.544 48.159 94.589 48.041 C 94.839 47.182 95.105 46.338 95.37 45.494 C 95.71 44.413 96.049 43.347 96.374 42.267 C 96.61 41.512 96.728 41.408 97.569 41.438 Z M 97.51 42.977 C 97.377 43.125 97.274 43.199 97.259 43.273 C 97.008 44.177 96.757 45.08 96.551 45.997 C 96.521 46.116 96.787 46.382 96.949 46.427 C 97.259 46.501 97.584 46.442 97.908 46.442 C 98.439 46.442 98.557 46.323 98.439 45.82 C 98.248 45.006 98.026 44.191 97.79 43.392 C 97.761 43.259 97.643 43.155 97.51 42.977 Z M 110.272 44.887 L 110.272 41.956 C 110.272 41.586 110.361 41.438 110.803 41.453 C 112.013 41.482 113.223 41.453 114.433 41.438 C 114.816 41.438 115.038 41.541 115.052 41.971 C 115.067 42.415 114.787 42.43 114.448 42.43 C 113.68 42.415 112.898 42.43 112.131 42.43 C 111.718 42.43 111.511 42.592 111.511 43.022 C 111.511 44.724 111.497 44.428 112.869 44.443 L 113.37 44.443 C 113.695 44.428 113.916 44.473 113.902 44.902 C 113.887 45.302 113.798 45.494 113.341 45.435 C 112.928 45.391 112.5 45.45 112.087 45.435 C 111.733 45.42 111.541 45.583 111.526 45.923 C 111.511 46.308 111.467 46.708 111.556 47.078 C 111.6 47.256 111.925 47.448 112.131 47.463 C 112.943 47.508 113.739 47.493 114.551 47.478 C 114.875 47.478 115.067 47.552 115.067 47.922 C 115.067 48.292 114.964 48.499 114.551 48.499 C 113.267 48.485 111.998 48.499 110.715 48.499 C 110.287 48.499 110.287 48.189 110.287 47.907 C 110.272 46.871 110.272 45.879 110.272 44.887 Z M 74.361 41.438 C 74.995 41.438 75.63 41.467 76.279 41.423 C 76.618 41.408 76.751 41.512 76.736 41.837 C 76.736 42.134 76.78 42.43 76.323 42.415 C 75.497 42.4 74.67 42.43 73.844 42.4 C 73.387 42.385 73.18 42.578 73.18 43.022 C 73.18 44.547 73.107 44.458 74.508 44.428 C 74.67 44.428 74.848 44.443 75.01 44.428 C 75.364 44.384 75.6 44.458 75.585 44.887 C 75.57 45.287 75.423 45.465 74.995 45.42 C 74.597 45.376 74.184 45.405 73.785 45.42 C 73.682 45.42 73.564 45.391 73.49 45.45 C 72.9 45.864 73.254 46.471 73.21 46.989 C 73.18 47.315 73.431 47.463 73.785 47.463 C 74.597 47.448 75.408 47.493 76.205 47.448 C 76.618 47.434 76.736 47.611 76.751 47.981 C 76.766 48.366 76.559 48.47 76.22 48.47 C 75.01 48.455 73.8 48.44 72.59 48.455 C 71.97 48.47 71.956 48.292 71.941 47.759 C 71.911 45.909 71.926 44.058 71.926 42.193 C 71.926 41.527 72.015 41.423 72.649 41.438 C 73.21 41.453 73.785 41.438 74.361 41.438 Z M 80.823 46.93 C 81.059 45.879 80.469 45.08 80.056 44.221 C 79.702 43.481 79.333 42.741 78.964 42 C 78.728 41.541 78.802 41.527 79.274 41.438 C 79.938 41.304 80.174 41.675 80.38 42.178 C 80.602 42.711 80.838 43.229 81.089 43.747 C 81.162 43.895 81.325 44.043 81.457 44.073 C 81.546 44.088 81.708 43.895 81.782 43.762 C 82.107 43.111 82.402 42.459 82.711 41.808 C 82.859 41.497 83.7 41.275 83.936 41.512 C 84.025 41.601 83.995 41.882 83.921 42.03 C 83.39 43.125 82.815 44.177 82.328 45.287 C 82.151 45.672 82.121 46.116 82.092 46.545 C 82.048 47.049 82.077 47.552 82.092 48.07 C 82.092 48.396 81.93 48.485 81.649 48.455 C 81.354 48.411 80.911 48.677 80.852 48.129 C 80.793 47.715 80.823 47.315 80.823 46.93 Z M 21.393 8.068 C 20.995 8.305 20.597 8.601 20.169 8.779 C 19.564 9.031 18.944 9.208 18.31 9.356 C 18.133 9.401 17.838 9.312 17.749 9.179 C 17.292 8.498 16.879 7.787 16.466 7.032 C 18 7.876 19.608 8.231 21.349 7.876 C 21.349 7.935 21.379 7.994 21.393 8.068 Z" fill="#A5A5A7"></path></svg>