<svg xmlns="http://www.w3.org/2000/svg" width="112" height="53"><path d="M 23.467 47.769 C 23.415 47.184 23.57 46.444 23.277 46.048 C 23.019 45.721 22.245 45.79 21.695 45.669 C 18.976 45.05 16.447 43.983 14.211 42.28 C 13.918 42.056 13.643 41.815 13.454 41.66 C 14.624 40.507 15.759 39.371 16.981 38.15 C 18.701 39.475 20.834 40.473 23.277 40.92 C 23.381 40.696 23.467 40.473 23.553 40.266 L 26.219 40.266 L 26.219 47.786 C 25.308 47.769 24.396 47.769 23.467 47.769 Z M 28.456 47.769 L 28.456 40.283 L 31.381 40.283 L 31.381 47.769 Z M 26.185 36.291 C 20.852 36.377 16.447 32.041 16.465 26.586 C 16.482 21.234 20.834 16.674 26.649 16.932 C 31.725 17.139 35.923 21.114 35.957 26.603 C 36.009 32.041 31.622 36.394 26.185 36.291 Z M 21.763 26.62 C 21.746 29.116 23.673 31.094 26.237 31.094 C 28.714 31.094 30.71 29.167 30.71 26.603 C 30.71 23.988 28.628 22.112 26.237 22.129 C 23.69 22.146 21.729 24.074 21.763 26.62 Z M 16.809 15.384 L 13.282 11.856 C 15.794 9.688 18.735 8.311 22.022 7.675 C 22.262 7.623 22.52 7.503 22.761 7.52 C 23.398 7.554 23.467 7.21 23.432 6.711 C 23.415 6.367 23.432 6.04 23.432 5.644 L 26.185 5.644 L 26.185 13.147 C 25.394 13.147 24.568 13.181 23.759 13.112 C 23.553 13.095 23.398 12.734 23.157 12.476 C 20.852 12.923 18.684 13.904 16.809 15.384 Z M 11.355 13.663 L 14.778 17.087 C 14.039 18.344 13.161 19.565 12.576 20.907 C 12.026 22.181 11.819 23.592 11.424 24.934 C 11.355 25.158 11.08 25.468 10.89 25.485 C 9.445 25.536 7.983 25.502 6.417 25.502 C 6.675 20.89 8.43 17.036 11.355 13.663 Z M 6.417 28.031 L 10.753 28.031 C 10.942 28.031 11.148 28.066 11.372 28.083 C 11.699 31.181 12.903 33.882 14.847 36.154 L 11.32 39.681 C 8.465 36.429 6.744 32.609 6.417 28.031 Z M 102.658 15.556 C 99.819 15.659 97.548 13.611 97.548 10.617 C 97.548 7.847 99.527 5.661 102.744 5.61 C 105.239 5.558 107.957 7.503 107.837 10.841 C 107.751 13.319 105.497 15.78 102.658 15.556 Z M 102.744 13.68 C 104.396 13.68 105.755 12.269 105.703 10.6 C 105.652 8.948 104.258 7.503 102.71 7.52 C 101.058 7.537 99.699 8.965 99.733 10.686 C 99.751 12.321 101.11 13.68 102.744 13.68 Z M 61.265 20.15 C 60.645 20.925 60.163 21.148 59.217 20.529 C 57.032 19.066 53.884 19.875 52.422 22.078 C 50.323 25.209 51.733 29.873 55.518 30.716 C 58.822 31.456 61.695 29.219 61.918 25.915 C 61.987 24.951 61.763 23.97 61.66 22.852 C 61.849 22.697 62.228 22.405 62.589 22.095 C 64.172 24.211 63.673 28.324 61.351 30.423 C 58.546 32.953 54.314 32.798 51.751 30.165 C 49.308 27.67 49.273 23.248 51.716 20.598 C 54.09 18.017 58.426 17.638 61.265 20.15 Z M 62.503 15.349 L 60.473 15.349 L 60.473 5.919 C 62.348 5.919 64.224 5.833 66.099 5.954 C 67.372 6.04 68.232 6.918 68.456 8.156 C 68.697 9.533 68.456 10.841 67.131 11.667 C 66.942 11.787 66.753 11.908 66.529 12.045 C 67.269 13.13 67.974 14.162 68.783 15.367 C 67.94 15.367 67.252 15.384 66.546 15.349 C 66.374 15.332 66.185 15.126 66.065 14.971 C 65.548 14.231 65.067 13.474 64.551 12.734 C 64.292 12.355 63.054 12.08 62.727 12.372 C 62.589 12.493 62.538 12.768 62.538 12.975 C 62.486 13.749 62.503 14.506 62.503 15.349 Z M 62.486 9.034 C 62.486 9.344 62.417 9.688 62.503 9.963 C 62.572 10.187 62.83 10.531 63.019 10.531 C 63.759 10.548 64.499 10.531 65.222 10.411 C 66.082 10.273 66.46 9.722 66.409 8.948 C 66.357 8.243 65.789 7.726 64.963 7.692 C 64.43 7.657 63.88 7.726 63.346 7.675 C 62.658 7.606 62.4 7.864 62.486 8.535 C 62.52 8.69 62.486 8.862 62.486 9.034 Z M 78.228 31.903 C 76.852 32.161 76.817 32.144 76.301 30.991 C 76.009 30.32 75.682 29.666 75.441 28.978 C 75.286 28.513 75.011 28.393 74.546 28.393 C 72.551 28.41 70.538 28.376 68.542 28.427 C 68.232 28.427 67.802 28.72 67.665 28.995 C 67.166 29.942 66.77 30.94 66.323 31.972 L 64.826 31.972 C 65.204 31.112 65.566 30.303 65.927 29.494 C 67.458 26.104 69.006 22.731 70.52 19.342 C 70.744 18.825 71.019 18.636 71.587 18.619 C 72.206 18.602 72.396 18.894 72.602 19.376 C 74.443 23.489 76.301 27.567 78.159 31.662 C 78.211 31.748 78.211 31.834 78.228 31.903 Z M 71.553 20.288 C 70.469 22.731 69.488 24.917 68.473 27.171 L 74.598 27.171 C 73.6 24.882 72.619 22.697 71.553 20.288 Z M 107.2 20.081 C 106.908 20.494 106.667 20.821 106.46 21.114 C 105.514 20.701 104.637 20.15 103.69 19.944 C 102.486 19.686 101.196 19.6 100.198 20.667 C 99.303 21.63 99.441 23.127 100.611 23.678 C 101.695 24.177 102.916 24.383 104.017 24.831 C 105.015 25.244 106.151 25.622 106.873 26.362 C 108.404 27.928 107.561 30.819 105.428 31.697 C 102.968 32.729 99.544 32.006 97.72 30.045 C 97.858 29.838 97.978 29.632 98.116 29.425 C 98.374 29.03 98.667 28.978 99.028 29.322 C 100.422 30.664 102.159 30.94 104 30.785 C 104.946 30.699 105.961 29.787 106.082 28.961 C 106.254 27.756 105.875 27.033 104.654 26.586 C 103.57 26.19 102.417 25.984 101.316 25.64 C 100.129 25.261 98.959 24.796 98.409 23.54 C 97.6 21.699 98.615 19.479 100.594 18.808 C 102.744 18.085 104.757 18.498 106.649 19.651 C 106.839 19.789 107.011 19.944 107.2 20.081 Z M 79.88 30.045 C 80.224 29.683 80.499 29.374 80.671 29.184 C 81.824 29.735 82.839 30.389 83.957 30.664 C 84.852 30.888 85.884 30.768 86.813 30.595 C 87.759 30.406 88.378 29.477 88.413 28.634 C 88.447 27.756 87.983 26.999 86.985 26.638 C 85.901 26.242 84.783 26.001 83.682 25.657 C 83.148 25.485 82.581 25.347 82.099 25.072 C 80.705 24.297 80.241 23.127 80.516 21.372 C 80.705 20.133 81.961 18.946 83.355 18.636 C 85.574 18.137 87.553 18.705 89.462 20.047 C 89.17 20.443 88.912 20.804 88.602 21.234 C 87.329 20.202 85.901 19.72 84.284 19.823 C 82.581 19.927 81.376 21.424 82.099 22.783 C 82.391 23.334 83.062 23.833 83.665 24.074 C 84.869 24.538 86.176 24.71 87.381 25.175 C 89.944 26.139 90.684 28.582 89.067 30.681 C 88.258 31.731 87.019 32.075 85.763 32.161 C 83.561 32.299 81.634 31.611 79.88 30.045 Z M 80.224 5.713 C 81.996 5.799 83.716 5.73 85.385 6.006 C 87.191 6.315 87.983 7.812 87.708 9.912 C 87.553 11.219 86.039 12.441 84.525 12.476 C 83.785 12.493 83.045 12.476 82.219 12.476 L 82.219 15.349 L 80.206 15.349 C 80.224 12.183 80.224 9.034 80.224 5.713 Z M 82.271 10.772 C 83.08 10.703 83.837 10.703 84.576 10.566 C 85.333 10.428 85.763 9.757 85.66 8.982 C 85.557 8.208 85.041 7.778 84.318 7.675 C 83.647 7.589 82.976 7.657 82.288 7.657 C 82.271 8.724 82.271 9.671 82.271 10.772 Z M 58.563 7.09 C 58.495 7.21 58.46 7.279 58.409 7.348 C 58.082 7.726 57.789 8.329 57.376 8.432 C 57.015 8.518 56.516 8.053 56.069 7.847 C 54.675 7.21 53.437 7.537 52.49 8.793 C 51.699 9.843 51.819 11.753 52.731 12.803 C 53.557 13.749 55.209 13.973 56.396 13.267 C 56.705 13.078 56.998 12.854 57.29 12.631 C 57.703 13.095 58.099 13.525 58.512 13.99 C 57.308 15.917 53.402 16.072 51.596 14.575 C 49.359 12.699 49.067 9.327 51.028 7.158 C 52.92 5.111 56.757 5.059 58.563 7.09 Z M 69.178 5.782 C 69.918 5.782 70.555 5.747 71.157 5.799 C 71.415 5.816 71.725 6.006 71.862 6.212 C 72.568 7.313 73.204 8.432 73.944 9.671 C 74.753 8.329 75.527 7.072 76.301 5.799 L 78.675 5.799 C 78.262 6.453 77.901 7.038 77.54 7.606 C 77.385 7.847 77.247 8.088 77.075 8.311 C 75.492 10.359 74.391 12.562 75.131 15.315 L 72.929 15.315 C 72.929 14.386 72.981 13.422 72.912 12.476 C 72.877 11.994 72.74 11.478 72.499 11.065 C 71.449 9.344 70.348 7.64 69.178 5.782 Z M 91.699 7.657 L 88.791 7.657 L 88.791 5.851 L 96.671 5.851 L 96.671 7.657 L 93.763 7.657 L 93.763 15.349 L 91.716 15.349 C 91.699 12.82 91.699 10.307 91.699 7.657 Z M 31.329 13.112 L 28.508 13.112 L 28.508 5.627 L 31.329 5.627 Z M 94.52 31.972 L 93.092 31.972 L 93.092 18.688 L 94.52 18.688 Z M 107.768 36.739 L 49.806 36.739 L 49.806 36.567 L 107.768 36.567 Z M 66.288 45.067 C 66.288 45.945 65.445 46.702 64.361 46.702 C 63.535 46.702 62.899 46.323 62.503 45.79 C 62.469 45.704 62.486 45.669 62.538 45.618 L 62.71 45.463 C 62.778 45.411 62.83 45.429 62.899 45.48 C 63.209 45.859 63.69 46.203 64.344 46.203 C 65.204 46.203 65.755 45.652 65.755 45.016 C 65.755 43.45 62.606 43.897 62.606 41.97 C 62.606 41.127 63.329 40.473 64.31 40.473 C 64.929 40.473 65.566 40.782 65.978 41.281 C 66.03 41.35 66.03 41.402 65.961 41.471 L 65.824 41.608 C 65.772 41.66 65.703 41.677 65.634 41.608 C 65.256 41.195 64.86 40.955 64.292 40.955 C 63.639 40.955 63.105 41.299 63.105 41.97 C 63.123 43.501 66.288 43.037 66.288 45.067 Z M 71.587 46.203 L 71.587 46.461 C 71.587 46.547 71.535 46.599 71.449 46.599 L 68.525 46.599 C 68.439 46.599 68.387 46.547 68.387 46.461 L 68.387 40.696 C 68.387 40.61 68.439 40.559 68.525 40.559 L 71.432 40.559 C 71.501 40.559 71.57 40.61 71.57 40.696 L 71.57 40.955 C 71.57 41.041 71.518 41.092 71.432 41.092 L 68.938 41.092 L 68.938 43.14 L 71.295 43.14 C 71.381 43.14 71.432 43.192 71.432 43.278 L 71.432 43.536 C 71.432 43.622 71.381 43.673 71.295 43.673 L 68.938 43.673 L 68.938 46.134 L 71.449 46.134 C 71.535 46.065 71.587 46.117 71.587 46.203 Z M 78.176 40.679 L 78.176 46.444 C 78.176 46.513 78.142 46.564 78.073 46.581 L 77.626 46.581 C 77.557 46.581 77.505 46.547 77.471 46.495 L 74.374 41.299 L 74.374 46.461 C 74.374 46.547 74.323 46.599 74.237 46.599 L 73.944 46.599 C 73.875 46.599 73.806 46.547 73.806 46.461 L 73.806 40.696 C 73.806 40.628 73.841 40.576 73.91 40.559 L 74.357 40.559 C 74.426 40.559 74.477 40.576 74.512 40.645 L 77.609 45.842 L 77.609 40.679 C 77.609 40.593 77.66 40.542 77.746 40.542 L 78.039 40.542 C 78.125 40.559 78.176 40.61 78.176 40.679 Z M 83.923 40.679 L 83.923 40.937 C 83.923 41.023 83.871 41.075 83.785 41.075 L 82.409 41.075 L 82.409 46.461 C 82.409 46.547 82.357 46.599 82.271 46.599 L 81.978 46.599 C 81.892 46.599 81.841 46.547 81.841 46.461 L 81.841 41.075 L 80.447 41.075 C 80.378 41.075 80.31 41.023 80.31 40.937 L 80.31 40.679 C 80.31 40.593 80.361 40.542 80.447 40.542 L 83.785 40.542 C 83.871 40.559 83.923 40.61 83.923 40.679 Z M 86.211 40.559 L 86.503 40.559 C 86.589 40.559 86.641 40.61 86.641 40.696 L 86.641 46.461 C 86.641 46.547 86.589 46.599 86.503 46.599 L 86.211 46.599 C 86.142 46.599 86.073 46.547 86.073 46.461 L 86.073 40.696 C 86.09 40.61 86.142 40.559 86.211 40.559 Z M 88.791 43.587 C 88.791 41.849 90.168 40.473 91.871 40.473 C 93.574 40.473 94.933 41.849 94.933 43.587 C 94.933 45.308 93.557 46.685 91.871 46.685 C 90.168 46.685 88.791 45.308 88.791 43.587 Z M 94.417 43.587 C 94.417 42.125 93.299 40.972 91.871 40.972 C 90.426 40.972 89.308 42.125 89.308 43.587 C 89.308 45.033 90.426 46.186 91.871 46.186 C 93.299 46.186 94.417 45.033 94.417 43.587 Z" fill="#a5a5a7"></path></svg>