<svg xmlns="http://www.w3.org/2000/svg" width="82" height="81"><path d="M 79.732 38.094 C 79.653 36.384 79.284 34.688 79.047 32.979 C 78.81 33.136 78.744 33.281 78.704 33.426 C 74.525 46.338 62.054 53.873 48.633 51.585 C 29.386 48.311 20.315 25.286 32.128 9.717 C 34.487 6.614 37.414 4.195 40.75 2.235 L 39.181 2.235 C 37.48 2.459 35.766 2.604 34.079 2.919 C 12.419 6.864 -1.674 27.6 2.742 48.994 C 8.042 74.715 37.177 88.087 59.984 74.964 C 74.05 66.864 80.458 54.267 79.732 38.094 Z M 21.331 14.504 C 22.227 14.504 22.952 15.227 22.952 16.121 C 22.952 17.015 22.227 17.738 21.331 17.738 C 20.434 17.738 19.709 17.015 19.709 16.121 C 19.709 15.214 20.434 14.504 21.331 14.504 Z M 20.764 23.393 C 22.385 23.393 23.704 24.708 23.704 26.325 C 23.704 27.942 22.385 29.257 20.764 29.257 C 19.142 29.257 17.824 27.942 17.824 26.325 C 17.837 24.694 19.142 23.393 20.764 23.393 Z M 19.234 64.064 C 17.586 64.064 16.255 62.736 16.255 61.092 C 16.255 59.448 17.586 58.12 19.234 58.12 C 20.882 58.12 22.214 59.448 22.214 61.092 C 22.214 62.736 20.882 64.064 19.234 64.064 Z M 14.172 47.048 C 9.268 47.048 5.3 43.09 5.3 38.199 C 5.3 33.307 9.268 29.349 14.172 29.349 C 19.076 29.349 23.044 33.307 23.044 38.199 C 23.031 43.077 19.063 47.048 14.172 47.048 Z M 28.133 53.715 C 25.681 53.715 23.704 51.73 23.704 49.297 C 23.704 46.851 25.694 44.879 28.133 44.879 C 30.585 44.879 32.563 46.864 32.563 49.297 C 32.576 51.73 30.585 53.715 28.133 53.715 Z M 33.261 52.821 C 33.261 51.519 34.316 50.467 35.621 50.467 C 36.926 50.467 37.981 51.519 37.981 52.821 C 37.981 54.123 36.926 55.175 35.621 55.175 C 34.316 55.175 33.261 54.123 33.261 52.821 Z M 36.584 57.173 C 36.584 56.279 37.309 55.556 38.205 55.556 C 39.102 55.556 39.827 56.279 39.827 57.173 C 39.827 58.068 39.102 58.791 38.205 58.791 C 37.309 58.791 36.584 58.068 36.584 57.173 Z M 43.109 75.319 C 40.394 75.319 38.205 73.124 38.205 70.428 C 38.205 67.719 40.407 65.536 43.109 65.536 C 45.825 65.536 48.014 67.732 48.014 70.428 C 48.014 73.124 45.812 75.319 43.109 75.319 Z M 64.73 52.098 C 65.626 52.098 66.351 52.821 66.351 53.715 C 66.351 54.609 65.626 55.332 64.73 55.332 C 63.833 55.332 63.108 54.609 63.108 53.715 C 63.108 52.821 63.833 52.098 64.73 52.098 Z M 64.73 63.472 C 62.739 63.472 61.131 61.868 61.131 59.882 C 61.131 57.897 62.739 56.292 64.73 56.292 C 66.721 56.292 68.329 57.897 68.329 59.882 C 68.329 61.868 66.721 63.472 64.73 63.472 Z M 69.054 56.384 C 68.158 56.384 67.432 55.661 67.432 54.767 C 67.432 53.873 68.158 53.15 69.054 53.15 C 69.95 53.15 70.676 53.873 70.676 54.767 C 70.676 55.661 69.95 56.384 69.054 56.384 Z" fill="#A5A5A7"></path><path d="M 51.942 17.265 C 52.944 17.015 53.893 16.818 54.79 16.516 C 55.04 16.424 55.277 16.016 55.33 15.713 C 55.515 14.767 55.581 13.807 55.752 12.86 C 55.831 12.426 56.042 12.019 56.279 11.387 C 57.295 12.86 58.046 14.136 57.73 15.713 C 57.532 16.726 57.189 17.699 56.925 18.712 C 56.833 19.08 56.754 19.461 56.741 19.842 C 56.728 20.723 56.2 21.368 55.462 21.368 C 54.882 21.368 54.328 20.552 54.381 19.763 C 54.394 19.474 54.434 19.198 54.46 18.909 C 53.234 18.804 51.85 19.527 51.349 20.487 C 50.98 21.21 50.479 21.749 49.595 21.512 C 48.923 21.341 48.646 20.355 48.857 19.461 C 49.279 17.673 49.635 15.871 50.031 14.083 C 50.176 13.399 50.373 12.729 50.584 11.953 C 49.253 12.097 47.868 12.203 46.511 12.4 C 46.273 12.439 45.996 12.768 45.878 13.018 C 45.113 14.727 44.349 16.45 43.65 18.199 C 43.36 18.935 42.859 19.763 43.848 20.474 C 43.979 20.566 43.966 21.197 43.821 21.289 C 43.518 21.486 43.03 21.67 42.714 21.565 C 41.527 21.197 41.224 20.145 41.224 19.093 C 41.224 18.304 41.448 17.489 41.699 16.739 C 42.121 15.49 42.661 14.293 43.175 13.005 C 42.345 13.005 41.58 12.992 40.815 13.005 C 39.563 13.044 39.075 12.676 38.877 11.466 C 38.772 10.861 38.93 10.48 39.668 10.467 C 40.934 10.441 42.226 10.467 43.452 10.204 C 45.364 9.796 47.288 9.836 49.213 9.665 C 49.767 9.612 50.4 10.02 50.914 10.349 C 51.375 10.638 51.547 11.124 51.204 11.703 C 51.085 11.913 51.125 12.4 51.296 12.558 C 52.483 13.688 52.259 14.99 51.903 16.345 C 51.863 16.463 51.85 16.594 51.85 16.726 C 51.85 16.818 51.889 16.91 51.942 17.265 Z M 42.186 30.901 C 41.896 31.085 41.659 31.269 41.382 31.414 C 40.235 32.006 39.128 32.729 37.915 33.15 C 36.412 33.675 35.582 33.255 34.685 31.927 C 34.593 31.795 34.501 31.677 34.277 31.401 C 34.013 31.979 33.802 32.426 33.604 32.887 C 33.09 34.083 32.615 35.306 32.062 36.489 C 31.917 36.792 31.482 37.213 31.258 37.173 C 30.941 37.121 30.572 36.726 30.427 36.397 C 29.952 35.332 29.847 34.215 30.387 33.11 C 31.468 30.901 32.523 28.679 33.631 26.483 C 33.828 26.088 34.158 25.746 34.514 25.47 C 34.698 25.326 35.133 25.26 35.305 25.378 C 36.518 26.194 37.612 27.061 37.375 28.81 C 37.243 29.757 37.902 30.204 38.64 29.665 C 40.064 28.613 41.343 27.377 42.701 26.246 C 42.977 26.009 43.36 25.707 43.676 25.733 C 44.375 25.786 45.601 27.245 45.482 27.929 C 45.047 30.428 44.533 32.9 44.045 35.385 C 44.019 35.543 43.966 35.74 43.848 35.819 C 43.399 36.134 42.925 36.424 42.463 36.713 C 42.226 36.319 41.791 35.911 41.804 35.516 C 41.831 34.017 42.028 32.558 42.186 30.901 Z M 69.568 33.925 C 69.173 34.819 68.909 35.503 68.553 36.134 C 68.368 36.476 68.065 36.95 67.775 36.976 C 67.498 37.015 67.077 36.595 66.879 36.292 C 66.299 35.398 66.233 34.491 66.773 33.465 C 67.802 31.519 68.711 29.52 69.66 27.548 C 71.44 28.008 71.823 28.784 71.414 30.52 C 71.163 31.572 71.229 32.689 71.308 33.807 C 73.76 32.295 72.89 29.415 74.195 27.469 C 75.87 28.1 76.081 28.652 75.501 30.244 C 75.211 31.019 75.132 31.887 75.026 32.716 C 74.855 34.083 74.261 35.24 73.299 36.213 C 72.574 36.95 71.941 36.95 71.19 36.24 C 70.886 35.95 70.61 35.635 70.359 35.293 C 70.109 34.938 69.937 34.57 69.568 33.925 Z M 46.076 33.82 C 46.326 33.32 46.656 32.163 47.381 31.387 C 48.659 30.007 50.176 28.823 51.639 27.614 C 51.903 27.39 52.549 27.206 52.694 27.351 C 53.142 27.758 53.498 28.311 53.748 28.863 C 53.946 29.297 53.854 29.849 54.025 30.296 C 54.341 31.138 54.803 31.927 55.093 32.781 C 55.713 34.596 55.277 35.556 53.524 36.24 C 51.929 36.871 50.294 37.357 48.514 37.134 C 47.038 36.963 46.036 35.937 46.076 33.82 Z M 49.464 35.227 C 50.545 34.859 51.692 34.53 52.759 34.057 C 53.076 33.912 53.471 33.215 53.366 32.952 C 53.036 32.15 52.496 31.427 52.021 30.691 C 52.008 30.664 51.85 30.743 51.758 30.756 C 50.149 31.006 49.305 32.203 48.514 33.413 C 48.29 33.768 48.053 34.32 48.185 34.635 C 48.29 34.912 48.91 34.99 49.464 35.227 Z M 56.385 34.412 C 56.438 32.729 57.374 31.466 58.507 30.388 C 59.602 29.349 60.828 28.442 62.027 27.535 C 62.278 27.351 62.871 27.219 63.016 27.364 C 63.451 27.785 63.807 28.324 64.058 28.876 C 64.255 29.31 64.176 29.849 64.334 30.309 C 64.651 31.151 65.099 31.953 65.389 32.794 C 66.009 34.583 65.574 35.556 63.82 36.24 C 62.251 36.858 60.656 37.344 58.903 37.134 C 57.36 36.963 56.345 35.977 56.385 34.412 Z M 59.457 35.082 C 60.314 34.964 60.959 34.912 61.592 34.754 C 63.754 34.215 64.044 33.57 63.069 31.598 C 62.541 30.533 61.909 30.322 60.973 31.098 C 60.168 31.782 59.457 32.597 58.797 33.426 C 58.547 33.741 58.323 34.346 58.468 34.635 C 58.6 34.925 59.206 34.99 59.457 35.082 Z M 65.521 16.594 C 64.704 17.594 63.596 17.686 62.436 17.66 C 61.17 17.633 60.986 17.817 60.604 19.435 C 61.816 19.303 62.95 19.211 64.071 19.053 C 64.743 18.961 65.363 18.725 65.93 19.382 C 66.299 19.816 66.299 20.158 65.903 20.447 C 65.521 20.737 65.086 21.013 64.624 21.092 C 63.372 21.289 62.12 21.46 60.854 21.486 C 58.942 21.525 57.967 19.987 58.692 18.159 C 58.837 17.804 59.008 17.449 59.206 17.12 C 59.681 16.266 59.984 15.464 59.509 14.425 C 59.074 13.465 59.377 13.07 60.432 12.834 C 62.014 12.479 63.609 12.176 65.205 11.874 C 65.429 11.834 65.705 11.782 65.877 11.874 C 66.299 12.111 66.681 12.439 67.077 12.715 C 66.76 13.044 66.51 13.544 66.127 13.675 C 65.02 14.044 63.873 14.241 62.752 14.556 C 62.462 14.635 62.212 14.911 61.948 15.095 C 62.265 15.24 62.581 15.516 62.871 15.49 C 63.926 15.398 64.862 15.477 65.521 16.594 Z" fill="#A5A5A7"></path></svg>