<svg xmlns="http://www.w3.org/2000/svg" width="132" height="28"><path d="M 13.2 3.425 L 13.2 21.036 L 10.577 21.036 L 10.577 12.394 L 9.258 16.828 L 8.947 17.752 L 6.791 17.752 L 6.508 16.828 L 5.161 12.394 L 5.161 21.036 L 2.552 21.036 L 2.552 3.425 L 5.189 3.425 L 7.883 12.323 L 10.577 3.425 Z M 24.883 3.425 C 26.329 3.425 27.506 4.591 27.506 6.055 L 27.506 18.42 C 27.506 19.87 26.343 21.05 24.883 21.05 L 19.623 21.05 L 19.623 3.425 Z M 24.883 17.894 L 24.883 6.552 C 24.883 6.268 24.656 6.041 24.373 6.041 L 22.232 6.041 L 22.232 18.406 L 24.373 18.406 C 24.656 18.406 24.883 18.179 24.883 17.894 Z M 39.912 12.238 L 43.116 21.036 L 40.323 21.036 L 38.551 16.061 L 36.75 21.036 L 33.957 21.036 L 37.161 12.238 L 33.957 3.425 L 36.75 3.425 L 38.551 8.4 L 40.323 3.425 L 43.116 3.425 Z M 64.922 21.036 L 60.981 21.036 C 59.535 21.036 58.358 19.87 58.358 18.406 L 58.358 6.041 C 58.358 4.591 59.521 3.411 60.981 3.411 L 64.922 3.411 L 64.922 6.041 L 61.491 6.041 C 61.208 6.041 60.981 6.268 60.981 6.552 L 60.981 17.894 C 60.981 18.179 61.208 18.406 61.491 18.406 L 64.922 18.406 Z M 76.279 8.67 L 74.138 8.67 C 73.855 8.67 73.628 8.897 73.628 9.182 L 73.628 21.036 L 71.005 21.036 L 71.005 8.67 C 71.005 7.22 72.168 6.041 73.628 6.041 L 76.279 6.041 Z M 90.004 6.055 L 90.004 23.665 C 90.004 25.115 88.841 26.294 87.381 26.294 L 82.787 26.294 L 82.787 23.665 L 86.885 23.665 C 87.168 23.665 87.395 23.466 87.395 23.153 L 87.395 21.036 L 84.758 21.036 C 83.312 21.036 82.135 19.87 82.135 18.406 L 82.135 6.041 L 84.758 6.041 L 84.758 17.894 C 84.758 18.207 84.985 18.406 85.268 18.406 L 87.409 18.406 L 87.409 6.041 L 90.004 6.041 Z M 99.05 26.28 L 96.427 26.28 L 96.427 6.055 L 101.687 6.055 C 103.133 6.055 104.31 7.22 104.31 8.684 L 104.31 18.42 C 104.31 19.842 103.147 21.05 101.687 21.05 L 99.05 21.05 Z M 99.05 8.67 L 99.05 18.406 L 101.191 18.406 C 101.474 18.406 101.701 18.179 101.701 17.894 L 101.701 9.182 C 101.701 8.869 101.474 8.67 101.191 8.67 Z M 113.37 8.67 L 113.37 17.894 C 113.37 18.179 113.597 18.406 113.88 18.406 L 116.021 18.406 L 116.021 21.036 L 113.384 21.036 C 111.938 21.036 110.761 19.87 110.761 18.406 L 110.761 3.425 L 113.384 3.425 L 113.384 6.055 L 116.021 6.055 L 116.021 8.67 Z M 124.471 6.055 L 127.108 6.055 C 128.555 6.055 129.731 7.22 129.731 8.684 L 129.731 18.42 C 129.731 19.842 128.569 21.05 127.108 21.05 L 124.471 21.05 C 123.025 21.05 121.848 19.856 121.848 18.42 L 121.848 8.67 C 121.848 7.22 123.025 6.055 124.471 6.055 Z M 127.108 17.894 L 127.108 9.182 C 127.108 8.869 126.882 8.67 126.598 8.67 L 124.968 8.67 C 124.684 8.67 124.457 8.869 124.457 9.182 L 124.457 17.894 C 124.457 18.179 124.684 18.406 124.968 18.406 L 126.598 18.406 C 126.882 18.406 127.108 18.179 127.108 17.894 Z" fill="#A5A5A7"></path></svg>