<svg xmlns="http://www.w3.org/2000/svg" width="76" height="70"><path d="M 60.833 5.792 C 64.929 7.149 68.235 9.631 70.785 13.239 C 72.825 16.151 74.207 19.312 74.947 22.721 C 75.687 26.113 76.049 29.357 76.049 32.435 C 76.049 40.246 74.487 46.849 71.377 52.26 C 67.15 59.558 60.635 63.215 51.802 63.215 L 26.649 63.215 L 26.649 4.518 L 51.802 4.518 C 55.421 4.567 58.431 4.998 60.833 5.792 Z M 38.477 14.712 L 38.477 53.021 L 49.745 53.021 C 55.503 53.021 59.517 50.175 61.803 44.466 C 63.054 41.338 63.662 37.598 63.662 33.279 C 63.662 27.305 62.725 22.721 60.866 19.527 C 59.007 16.333 55.289 14.728 49.745 14.728 L 38.477 14.728 Z" fill="hsl(0, 0%, 71%)"></path><path d="M 12.749 10.723 C 17.454 5.891 23.425 3.475 30.68 3.475 C 40.385 3.475 47.492 6.719 51.983 13.189 C 54.467 16.83 55.733 19.014 55.914 22.671 L 43.774 24.128 C 43.001 21.314 41.997 19.196 40.78 17.757 C 38.609 15.208 35.384 13.934 31.124 13.934 C 26.781 13.934 23.359 15.738 20.842 19.329 C 18.342 22.92 17.075 28.017 17.075 34.603 C 17.075 41.189 18.391 46.121 21.04 49.397 C 23.688 52.674 27.044 54.312 31.124 54.312 C 35.302 54.312 38.494 52.905 40.681 50.092 C 41.899 48.586 42.902 46.303 43.708 43.291 L 55.552 45.508 C 54.5 51.913 52.114 54.891 47.821 58.896 C 43.527 62.901 38.016 64.903 31.321 64.903 C 23.014 64.903 16.5 62.189 11.745 56.778 C 6.991 51.333 4.623 43.87 4.623 34.404 C 4.655 24.161 7.353 16.267 12.749 10.723 Z" fill="#A5A5A7"></path><path d="M 51.177 34.917 L 50.996 34.868 L 48.758 34.305 L 48.331 36.043 L 48.643 36.125 L 50.749 36.655 C 51.193 36.771 51.637 36.489 51.752 36.059 L 51.785 35.927 C 51.9 35.48 51.621 35.033 51.177 34.917 Z M 51.736 31.856 L 49.811 31.359 L 49.499 31.277 L 49.12 32.849 L 51.358 33.411 C 51.752 33.511 52.164 33.262 52.262 32.865 L 52.295 32.749 C 52.377 32.369 52.131 31.955 51.736 31.856 Z" fill="#A5A5A7"></path><path d="M 50.091 26.478 C 46.044 26.478 42.771 29.771 42.771 33.842 C 42.771 37.913 46.044 41.206 50.091 41.206 C 54.138 41.206 57.411 37.913 57.411 33.842 C 57.411 29.771 54.138 26.478 50.091 26.478 Z M 53.71 33.13 L 53.677 33.246 C 53.562 33.742 53.266 34.156 52.904 34.454 C 53.249 34.983 53.381 35.629 53.216 36.291 L 53.184 36.423 C 52.871 37.664 51.621 38.426 50.387 38.111 L 50.338 38.095 L 50.173 38.757 L 48.742 38.392 L 48.906 37.73 L 48.314 37.582 L 48.15 38.243 L 46.719 37.879 L 46.883 37.217 L 46.554 37.135 L 45.847 36.953 L 46.209 35.513 L 46.916 35.695 L 47.344 33.957 L 47.706 32.501 L 48.084 30.929 L 47.377 30.747 L 47.739 29.307 L 48.446 29.489 L 48.775 29.572 L 48.972 28.761 L 50.403 29.125 L 50.206 29.936 L 50.798 30.085 L 50.996 29.274 L 52.427 29.638 L 52.229 30.466 C 53.332 30.813 54.006 31.988 53.71 33.13 Z" fill="#A5A5A7"></path></svg>