<svg xmlns="http://www.w3.org/2000/svg" width="91" height="100"><path d="M 49.232 55.07 C 48.732 54.902 48.274 54.707 47.83 54.497 C 47.65 54.413 47.567 54.288 47.567 54.078 L 47.567 52.891 C 47.567 52.849 47.567 52.807 47.581 52.765 C 47.609 52.626 47.692 52.542 47.844 52.57 C 48.205 52.612 48.58 52.654 48.94 52.709 C 49.384 52.779 50.674 53.24 51.16 53.464 C 51.007 53.701 50.757 53.827 50.563 54.008 L 49.897 54.553 C 49.675 54.721 49.467 54.888 49.232 55.07 Z M 25.732 48.617 C 25.566 48.464 25.594 48.324 25.594 48.184 C 25.594 47.332 25.594 46.48 25.608 45.628 C 25.788 46.089 25.83 46.62 26.204 47.025 C 26.301 46.969 26.384 46.927 26.454 46.872 C 26.704 46.718 26.967 46.62 27.258 46.592 C 27.869 46.522 28.479 46.536 29.089 46.634 C 29.617 46.718 30.13 46.816 30.657 46.913 C 30.796 46.941 30.921 46.969 31.045 47.039 C 30.116 47.165 29.187 47.291 28.285 47.556 C 27.411 47.807 26.579 48.226 25.732 48.617 Z" fill="#A5A5A7"></path><path d="M 89.724 47.249 C 89.627 45.992 89.474 44.735 89.266 43.478 C 88.947 41.578 88.503 39.707 87.92 37.877 C 87.865 37.709 87.837 37.528 87.823 37.346 C 87.823 36.913 87.74 36.494 87.615 36.089 C 87.449 35.559 87.296 35.042 87.102 34.525 C 85.576 30.293 83.523 26.327 80.957 22.626 C 79.084 19.916 76.948 17.444 74.479 15.265 C 71.205 12.388 67.515 10.293 63.339 9.106 C 63.159 9.05 63.034 8.966 62.937 8.799 C 62.576 8.184 62.132 7.626 61.633 7.109 C 60.912 6.369 60.107 5.74 59.219 5.209 C 57.804 4.344 56.292 3.729 54.725 3.254 C 53.99 3.031 53.254 2.849 52.505 2.696 L 52.505 2.751 C 52.575 2.807 52.658 2.863 52.727 2.919 C 53.49 3.422 54.142 4.036 54.669 4.791 C 55.585 6.131 56.084 7.612 55.862 9.26 C 55.724 10.321 55.321 11.243 54.517 11.969 C 54.101 12.346 53.643 12.626 53.13 12.835 C 52.325 13.17 51.465 13.296 50.605 13.31 C 49.578 13.324 48.566 13.184 47.567 12.961 C 46.221 12.654 44.876 12.332 43.53 12.039 C 42.282 11.76 41.019 11.508 39.743 11.341 C 38.966 11.243 38.203 11.145 37.427 11.117 C 36.996 11.103 36.58 11.117 36.15 11.103 C 35.207 11.089 34.278 11.215 33.348 11.411 C 33.265 11.425 33.196 11.439 33.14 11.439 C 33.098 11.425 33.085 11.425 33.071 11.411 C 33.015 11.355 32.96 11.285 32.904 11.229 C 32.419 10.67 31.808 10.321 31.115 10.126 C 30.671 10 30.213 9.944 29.741 9.93 C 28.687 9.902 27.647 10.028 26.606 10.237 C 25.483 10.447 24.359 10.684 23.236 10.894 C 22.708 10.992 22.181 11.047 21.64 11.047 C 20.905 11.047 20.198 10.894 19.573 10.489 C 18.672 9.916 18.172 9.092 18.186 7.989 C 18.2 7.486 18.311 7.011 18.491 6.55 C 18.686 6.047 18.949 5.587 19.254 5.14 C 19.31 5.07 19.407 5.014 19.351 4.874 C 19.296 4.902 19.254 4.93 19.213 4.958 C 18.658 5.433 18.089 5.88 17.548 6.369 C 16.66 7.193 15.87 8.101 15.204 9.12 C 14.704 9.902 14.302 10.726 14.08 11.634 C 13.886 12.43 13.816 13.226 13.983 14.05 C 14.233 15.251 14.857 16.201 15.883 16.872 C 16.327 17.165 16.799 17.43 17.284 17.64 C 17.909 17.919 18.547 18.17 19.171 18.45 C 19.726 18.701 20.295 18.953 20.836 19.232 C 21.293 19.455 21.696 19.749 22.056 20.126 C 22.334 20.405 22.542 20.726 22.695 21.075 C 22.805 21.341 22.805 21.592 22.667 21.858 C 22.167 22.905 21.557 23.883 20.877 24.818 C 20.267 25.642 19.573 26.411 18.824 27.123 C 16.993 28.869 14.912 30.237 12.54 31.145 C 11.514 31.536 10.459 31.816 9.377 31.941 C 9.169 31.969 9.031 32.067 8.92 32.249 C 8.351 33.184 7.921 34.176 7.643 35.223 C 7.449 35.922 7.366 36.648 7.283 37.374 C 7.227 37.947 7.241 38.506 7.366 39.05 C 7.602 40.182 8.073 41.215 8.753 42.151 C 9.391 43.045 10.182 43.785 11.07 44.413 C 12.97 45.74 15.065 46.55 17.382 46.732 C 17.839 46.76 18.283 46.718 18.727 46.648 C 18.921 46.606 19.129 46.536 19.31 46.466 C 19.795 46.271 20.073 45.908 20.156 45.391 C 20.239 44.846 20.322 44.302 20.35 43.757 C 20.392 42.723 20.739 41.788 21.363 40.978 C 21.779 40.447 22.306 40.056 22.958 39.874 C 23.721 39.651 24.498 39.623 25.275 39.735 C 26.273 39.874 27.217 40.154 28.174 40.475 C 28.271 40.503 28.368 40.559 28.451 40.601 C 28.41 40.88 28.41 40.88 28.271 41.061 C 27.994 41.453 27.702 41.844 27.425 42.235 C 27.369 42.304 27.342 42.402 27.286 42.514 C 27.383 42.556 27.466 42.612 27.55 42.64 C 28.216 42.877 28.895 43.101 29.561 43.352 C 31.642 44.162 33.653 45.126 35.623 46.145 L 37.621 47.193 C 37.704 47.235 37.773 47.318 37.898 47.235 C 37.981 46.899 37.926 46.606 37.648 46.355 C 37.357 46.075 37.094 45.74 36.83 45.433 C 36.761 45.349 36.705 45.265 36.636 45.182 C 36.664 45.14 36.677 45.112 36.705 45.098 C 36.761 45.084 36.802 45.056 36.858 45.056 C 37.662 44.944 38.467 44.93 39.271 44.986 C 40.575 45.07 41.879 45.279 43.156 45.587 C 43.891 45.768 44.612 45.964 45.347 46.117 C 47.428 46.55 49.37 47.318 51.243 48.296 C 51.493 48.422 51.742 48.575 51.992 48.729 C 52.533 49.092 52.991 49.539 53.338 50.098 C 53.74 50.712 54.101 51.369 54.42 52.039 C 54.517 52.249 54.642 52.374 54.891 52.416 C 56.389 52.696 57.888 53.031 59.358 53.478 C 60.246 53.743 61.12 54.05 61.994 54.358 C 62.618 54.581 63.214 54.818 63.839 55.056 C 63.908 55.084 64.005 55.098 64.019 55.223 L 63.686 55.433 C 63.284 55.684 62.923 56.02 62.618 56.383 C 62.327 56.732 62.216 57.137 62.285 57.612 C 62.424 58.506 62.673 59.385 62.965 60.237 C 62.979 60.279 63.006 60.335 63.048 60.405 C 63.131 60.335 63.187 60.293 63.256 60.237 C 63.436 60.07 63.631 59.916 63.811 59.749 C 63.977 59.595 64.186 59.525 64.394 59.469 C 64.685 59.385 64.879 59.539 64.879 59.846 C 64.879 60 64.851 60.154 64.796 60.279 C 64.38 61.215 63.88 62.095 63.201 62.863 C 62.563 63.561 61.897 64.232 61.134 64.804 C 60.412 65.349 59.677 65.88 58.9 66.341 C 58.72 66.453 58.54 66.536 58.359 66.62 C 57.43 67.039 56.459 67.291 55.474 67.514 C 53.865 67.877 52.228 68.142 50.577 68.282 C 49.412 68.38 48.261 68.408 47.095 68.338 C 46.693 68.31 46.277 68.226 45.875 68.17 C 45.819 68.156 45.764 68.115 45.68 68.073 C 45.764 67.975 45.819 67.905 45.875 67.835 C 46.429 67.249 46.957 66.634 47.428 65.978 C 47.664 65.642 47.9 65.307 48.094 64.944 C 48.538 64.106 48.843 63.212 49.107 62.291 C 49.121 62.249 49.107 62.193 49.107 62.095 C 48.996 62.193 48.926 62.263 48.857 62.332 C 48.552 62.626 48.261 62.933 47.941 63.226 C 47.012 64.078 46.013 64.846 44.973 65.559 C 43.724 66.397 42.407 67.137 41.033 67.765 C 39.923 68.268 38.828 68.771 37.621 69.036 C 37.052 69.162 36.483 69.344 35.914 69.483 C 34.86 69.749 33.806 69.916 32.724 70.014 C 31.85 70.084 30.976 70.112 30.102 70.056 C 28.923 69.972 27.772 69.777 26.662 69.372 C 24.678 68.659 23.111 67.416 22.001 65.587 C 21.321 64.455 20.891 63.226 20.628 61.941 C 20.614 61.844 20.6 61.746 20.558 61.662 C 20.53 61.578 20.586 61.466 20.447 61.397 C 20.322 61.536 20.309 61.718 20.267 61.885 C 20.142 62.5 20.017 63.128 19.92 63.743 C 19.657 65.335 19.435 66.913 19.254 68.52 C 19.227 68.715 19.199 68.897 19.171 69.092 C 19.116 69.609 19.046 70.126 18.991 70.642 C 18.977 70.698 18.935 70.768 18.907 70.824 C 18.699 70.824 18.547 70.754 18.38 70.67 C 17.548 70.279 16.73 69.888 15.911 69.469 C 15.578 69.302 15.259 69.12 14.94 68.925 C 13.386 68.017 11.874 67.067 10.473 65.936 C 7.047 63.184 4.245 59.902 1.984 56.117 C 1.789 55.796 1.609 55.475 1.429 55.154 C 1.401 55.098 1.373 55.028 1.262 55.042 C 1.276 55.223 1.29 55.419 1.304 55.615 C 1.484 57.123 1.72 58.603 2.039 60.084 C 3.121 65.168 4.952 69.958 7.546 74.455 C 10.154 78.98 13.442 82.947 17.368 86.369 C 21.737 90.168 26.634 93.059 32.114 94.944 C 34.902 95.908 37.759 96.564 40.686 96.899 C 41.907 97.039 43.128 97.137 44.362 97.165 C 45.209 97.193 46.055 97.151 46.901 97.137 C 48.219 97.109 49.523 96.983 50.813 96.802 C 52.755 96.536 54.655 96.131 56.542 95.587 C 60.939 94.302 65.004 92.332 68.777 89.735 C 72.8 86.955 76.31 83.631 79.306 79.763 C 84.758 72.737 88.239 64.846 89.432 55.978 C 89.641 54.441 89.738 52.891 89.779 51.327 C 89.876 49.944 89.821 48.603 89.724 47.249 Z M 14.982 37.318 C 14.912 37.249 14.843 37.193 14.774 37.123 C 14.468 36.83 14.177 36.522 13.844 36.257 C 13.608 36.061 13.359 35.908 13.081 35.782 C 12.443 35.475 11.819 35.503 11.222 35.894 C 11.139 35.95 11.07 35.992 10.945 36.075 C 10.973 35.461 11.278 34.707 11.611 34.344 C 11.958 33.966 12.402 33.869 12.873 34.064 C 13.109 34.162 13.317 34.316 13.511 34.497 C 13.775 34.749 13.997 35.028 14.177 35.321 C 14.538 35.88 14.787 36.48 14.982 37.109 C 14.996 37.165 14.996 37.221 14.996 37.263 C 15.009 37.277 15.009 37.291 14.982 37.318 Z" fill="#A5A5A7"></path><path d="M 23.721 21.229 C 23.721 21.229 28.021 16.201 37.454 18.994 C 37.454 18.994 48.968 25.279 57.707 23.045 C 66.447 20.81 63.339 9.12 63.339 9.12 C 63.339 9.12 59.067 2.891 52.491 2.696 L 54.655 4.791 C 54.655 4.791 59.233 11.313 50.605 13.31 C 50.605 13.31 40.7 10.042 33.348 11.411 C 25.996 12.779 23.721 21.229 23.721 21.229 Z" fill="#b5b5b5"></path></svg>