<svg width="29" height="30" viewBox="0 0 29 30" fill="none" xmlns="http://www.w3.org/2000/svg">
<path d="M15.9943 13.7027C15.631 13.3483 15.1558 13.1313 14.65 13.0888C14.4519 13.0895 14.2568 13.1373 14.0808 13.2281C13.9047 13.3189 13.7527 13.4502 13.6373 13.6112C13.5557 13.7608 13.5113 13.9279 13.5079 14.0982C13.5044 14.2686 13.5421 14.4373 13.6176 14.5901C13.6931 14.7429 13.8043 14.8752 13.9418 14.9759C14.0792 15.0767 14.2389 15.1428 14.4073 15.1688C15.0173 15.2915 16.0163 15.5234 16.0162 16.3551C16.0162 17.1129 15.491 17.3764 14.8519 17.4015C14.2208 17.386 13.6134 17.1581 13.1279 16.7546" stroke="white" stroke-width="1.013" stroke-linecap="round" stroke-linejoin="round"/>
<path d="M14.5719 17.4029V18.4021" stroke="white" stroke-width="1.013" stroke-linecap="round" stroke-linejoin="round"/>
<path d="M14.5719 12.1674V13.0956" stroke="white" stroke-width="1.013" stroke-linecap="round" stroke-linejoin="round"/>
<path d="M14.6196 21.5032C18.0409 21.5032 20.8143 18.7297 20.8143 15.3085C20.8143 11.8872 18.0409 9.11377 14.6196 9.11377C11.1984 9.11377 8.42493 11.8872 8.42493 15.3085C8.42493 18.7297 11.1984 21.5032 14.6196 21.5032Z" stroke="white" stroke-width="1.013" stroke-linecap="round" stroke-linejoin="round"/>
<path d="M7.51221 3.21248C9.69264 1.92506 12.1847 1.26093 14.7166 1.29249" stroke="white" stroke-width="1.013" stroke-linecap="round" stroke-linejoin="round"/>
<path d="M1.88136 20.8675C1.55678 20.1439 1.29515 19.3938 1.09937 18.6253" stroke="white" stroke-width="1.013" stroke-linecap="round" stroke-linejoin="round"/>
<path d="M10.8289 28.5734C8.89069 28.0326 7.09348 27.0762 5.56226 25.7706" stroke="white" stroke-width="1.013" stroke-linecap="round" stroke-linejoin="round"/>
<path d="M15.3399 29.0607C15.1655 29.0703 14.9903 29.0766 14.8142 29.0797" stroke="white" stroke-width="1.013" stroke-linecap="round" stroke-linejoin="round"/>
<path d="M28.1776 17.9915C28.1434 18.1588 28.1062 18.325 28.0659 18.4899" stroke="white" stroke-width="1.013" stroke-linecap="round" stroke-linejoin="round"/>
<path d="M27.6473 10.49C28.2048 12.0444 28.4801 13.6859 28.4602 15.3372" stroke="white" stroke-width="1.013" stroke-linecap="round" stroke-linejoin="round"/>
<path d="M19.8662 2.33798C20.4059 2.56084 20.9309 2.81766 21.4381 3.10689" stroke="white" stroke-width="1.013" stroke-linecap="round" stroke-linejoin="round"/>
<path d="M17.0764 1.51779C17.1933 1.53913 17.3096 1.56192 17.4255 1.58619" stroke="white" stroke-width="1.013" stroke-linecap="round" stroke-linejoin="round"/>
<path d="M5.74927 10.6636C5.77393 10.6169 5.79904 10.5703 5.82457 10.5236" stroke="white" stroke-width="1.013" stroke-linecap="round" stroke-linejoin="round"/>
<path d="M21.9742 22.1418C20.4382 23.7978 18.3881 24.8866 16.1559 25.2318C13.9238 25.577 11.6405 25.1584 9.67599 24.0438C7.7115 22.9292 6.18093 21.1839 5.33232 19.0907C4.4837 16.9975 4.36675 14.6791 5.00042 12.5111" stroke="white" stroke-width="1.013" stroke-linecap="round" stroke-linejoin="round"/>
<path d="M23.5699 19.8479C23.5257 19.9354 23.4803 20.022 23.4336 20.1079" stroke="white" stroke-width="1.013" stroke-linecap="round" stroke-linejoin="round"/>
<path d="M7.11548 8.69C8.62914 6.98339 10.6795 5.84401 12.9281 5.45998C15.1767 5.07594 17.489 5.47021 19.4833 6.57769C21.4776 7.68517 23.0346 9.43964 23.8971 11.5514C24.7597 13.6632 24.8764 16.006 24.2278 18.193" stroke="white" stroke-width="1.013" stroke-linecap="round" stroke-linejoin="round"/>
<path d="M9.28194 8.986L6.91394 8.915L6.98593 6.547" stroke="white" stroke-width="1.013" stroke-linecap="round" stroke-linejoin="round"/>
<path d="M22.1749 24.162L22.3059 21.796L19.9399 21.666" stroke="white" stroke-width="1.013" stroke-linecap="round" stroke-linejoin="round"/>
</svg>
