<svg xmlns="http://www.w3.org/2000/svg" width="16" height="16"><path d="M 2.915 4.843 C 2.931 4.678 2.869 4.515 2.747 4.404 L 1.501 2.893 L 1.501 2.667 L 5.367 2.667 L 8.355 9.27 L 10.981 2.667 L 14.667 2.667 L 14.667 2.893 L 13.602 3.92 C 13.51 3.991 13.465 4.107 13.484 4.221 L 13.484 11.777 C 13.465 11.892 13.51 12.008 13.602 12.079 L 14.642 13.107 L 14.642 13.333 L 9.413 13.333 L 9.413 13.107 L 10.49 12.054 C 10.596 11.947 10.596 11.916 10.596 11.753 L 10.596 5.645 L 7.601 13.308 L 7.197 13.308 L 3.711 5.645 L 3.711 10.781 C 3.682 10.997 3.753 11.215 3.904 11.371 L 5.305 13.083 L 5.305 13.308 L 1.333 13.308 L 1.333 13.083 L 2.733 11.371 C 2.884 11.214 2.951 10.995 2.915 10.781 Z" fill="#dbdbdb"></path></svg>