<svg width="27" height="30" viewBox="0 0 27 30" fill="none" xmlns="http://www.w3.org/2000/svg">
<path d="M23.1005 22.4624V28.54H5.80237V5.4509H23.1005V20.0322" stroke="white" stroke-width="1.013" stroke-linecap="round" stroke-linejoin="round"/>
<path d="M25.752 8.961V25.607H23.101" stroke="white" stroke-width="1.013" stroke-linecap="round" stroke-linejoin="round"/>
<path d="M25.7517 6.7417V6.8781" stroke="white" stroke-width="1.013" stroke-linecap="round" stroke-linejoin="round"/>
<path d="M8.453 5.451V2.51801H25.752V4.65601" stroke="white" stroke-width="1.013" stroke-linecap="round" stroke-linejoin="round"/>
<path d="M15.5059 14.752H14.4509V8.961H20.2429V14.752H17.7529" stroke="white" stroke-width="1.013" stroke-linecap="round" stroke-linejoin="round"/>
<path d="M8.45349 17.8599H20.4494" stroke="white" stroke-width="1.013" stroke-linecap="round" stroke-linejoin="round"/>
<path d="M8.45349 20.2854H20.4494" stroke="white" stroke-width="1.013" stroke-linecap="round" stroke-linejoin="round"/>
<path d="M8.45349 22.7109H20.4494" stroke="white" stroke-width="1.013" stroke-linecap="round" stroke-linejoin="round"/>
<path d="M11.7477 25.3844H20.4494" stroke="white" stroke-width="1.013" stroke-linecap="round" stroke-linejoin="round"/>
<path d="M6.65718 12.7393C9.9319 12.7393 12.5866 10.0846 12.5866 6.80989C12.5866 3.53517 9.9319 0.880493 6.65718 0.880493C3.38246 0.880493 0.727783 3.53517 0.727783 6.80989C0.727783 10.0846 3.38246 12.7393 6.65718 12.7393Z" fill="#5D7FCA" stroke="white" stroke-width="1.013" stroke-linecap="round" stroke-linejoin="round"/>
<path d="M4.28198 7.05898L6.32898 9.67598L9.07999 5.03998" fill="#5D7FCA"/>
<path d="M4.28198 7.05898L6.32898 9.67598L9.07999 5.03998" stroke="white" stroke-width="1.013" stroke-linecap="round" stroke-linejoin="round"/>
</svg>
