<svg xmlns="http://www.w3.org/2000/svg" width="15" height="15"><path d="M 0.265 7.232 L 3.721 8.522 L 5.059 12.825 C 5.145 13.1 5.482 13.202 5.705 13.019 L 7.632 11.449 C 7.834 11.284 8.122 11.276 8.333 11.429 L 11.807 13.952 C 12.047 14.126 12.386 13.995 12.446 13.706 L 14.991 1.461 C 15.057 1.145 14.746 0.882 14.446 0.998 L 0.261 6.47 C -0.089 6.605 -0.086 7.101 0.265 7.232 Z M 4.843 7.836 L 11.598 3.675 C 11.72 3.601 11.845 3.765 11.74 3.861 L 6.166 9.044 C 5.97 9.226 5.843 9.47 5.808 9.735 L 5.618 11.142 C 5.592 11.33 5.329 11.349 5.277 11.167 L 4.546 8.601 C 4.463 8.308 4.585 7.995 4.843 7.836 Z" fill="#dbdbdb"></path></svg>