<svg xmlns="http://www.w3.org/2000/svg" width="15" height="15"><path d="M 14.66 2.777 C 14.424 2.881 14.182 2.97 13.935 3.041 C 14.229 2.708 14.452 2.317 14.587 1.893 C 14.618 1.797 14.586 1.693 14.508 1.63 C 14.429 1.567 14.32 1.56 14.234 1.611 C 13.71 1.922 13.14 2.147 12.546 2.278 C 11.947 1.693 11.133 1.36 10.292 1.36 C 8.516 1.36 7.072 2.804 7.072 4.58 C 7.072 4.719 7.081 4.858 7.098 4.996 C 4.895 4.802 2.847 3.719 1.44 1.994 C 1.39 1.932 1.313 1.899 1.234 1.905 C 1.154 1.912 1.083 1.956 1.043 2.025 C 0.758 2.514 0.607 3.074 0.607 3.644 C 0.607 4.42 0.884 5.156 1.374 5.731 C 1.225 5.68 1.081 5.615 0.943 5.539 C 0.869 5.498 0.778 5.498 0.705 5.54 C 0.631 5.582 0.585 5.66 0.583 5.745 C 0.583 5.759 0.583 5.773 0.583 5.788 C 0.583 6.946 1.206 7.989 2.159 8.557 C 2.077 8.549 1.995 8.537 1.914 8.521 C 1.83 8.505 1.744 8.535 1.688 8.599 C 1.631 8.662 1.612 8.751 1.639 8.833 C 1.991 9.934 2.899 10.744 3.997 10.991 C 3.087 11.561 2.045 11.86 0.952 11.86 C 0.724 11.86 0.497 11.847 0.27 11.82 C 0.158 11.807 0.052 11.873 0.014 11.979 C -0.024 12.085 0.016 12.203 0.111 12.264 C 1.516 13.165 3.139 13.64 4.807 13.64 C 8.085 13.64 10.136 12.095 11.28 10.798 C 12.705 9.18 13.523 7.04 13.523 4.925 C 13.523 4.837 13.521 4.747 13.518 4.658 C 14.081 4.235 14.565 3.722 14.959 3.133 C 15.019 3.043 15.012 2.925 14.943 2.842 C 14.874 2.76 14.758 2.733 14.66 2.777 Z" fill="#DBDBDB"></path></svg>