<svg xmlns="http://www.w3.org/2000/svg" width="353" height="536"><path d="M 17.126 145.745 C 34.383 130.048 51.64 114.351 68.646 98.655 C 103.16 67.262 137.674 35.868 172.189 4.475 C 172.938 3.716 173.689 3.209 174.189 2.703 C 174.939 1.943 175.69 1.437 176.19 0.931 C 176.441 0.677 176.691 0.424 176.94 0.424 C 176.94 0.424 177.19 0.677 177.44 0.931 C 177.941 1.437 178.441 1.943 179.191 2.703 C 179.691 3.209 180.192 3.969 180.941 4.728 C 186.944 11.564 193.197 18.399 199.2 25.235 C 216.456 44.223 233.713 63.464 249.47 83.211 C 270.729 109.794 288.736 136.63 298.991 164.226 C 309.244 191.568 311.746 219.671 301.991 248.278 C 292.237 277.141 270.23 307.014 230.713 338.154 C 223.46 343.472 213.705 344.737 204.451 342.712 C 195.198 340.686 186.944 335.37 182.942 327.269 C 178.441 318.914 177.19 312.079 177.691 306.002 C 178.191 300.179 180.691 294.863 184.444 289.799 C 187.695 285.241 191.947 280.685 196.448 275.874 C 196.948 275.368 197.449 274.862 197.699 274.356 C 202.701 269.04 207.952 263.47 212.204 257.14 C 253.972 189.291 166.186 103.465 95.407 165.998 C 92.406 168.783 89.155 171.82 85.653 175.113 L 85.403 175.366 C 82.152 178.657 78.65 181.948 75.149 184.987 C 67.896 191.568 60.143 197.644 52.64 201.695 C 45.137 205.746 37.634 207.518 30.631 205.999 C 23.628 204.227 16.625 199.165 9.623 187.771 C 1.869 175.62 5.121 156.378 17.126 145.745 Z" fill="rgb(255,255,255)"></path><path d="M 339.753 387.786 C 352.758 376.14 356.259 355.634 347.756 342.217 C 319.245 295.885 282.48 341.963 257.969 363.483 C 189.192 423.991 104.658 340.95 144.924 275.632 C 161.43 250.567 192.943 238.163 174.437 203.224 C 165.182 185.755 138.672 179.932 122.665 191.578 C -36.399 316.899 80.898 426.016 172.185 528.803 C 178.438 535.639 176.936 535.639 184.439 529.056 C 236.711 481.46 287.982 434.876 339.753 387.786 Z" fill="rgb(255,255,255)"></path></svg>