<svg xmlns="http://www.w3.org/2000/svg" width="55" height="55"><path d="M 27.5 55 C 42.688 55 55 42.688 55 27.5 C 55 12.312 42.688 0 27.5 0 C 12.312 0 0 12.312 0 27.5 C 0 42.688 12.312 55 27.5 55 Z" fill="rgb(244,155,51)"></path><path d="M 37.632 21.882 C 37.362 18.432 34.407 17.225 30.659 16.83 L 30.743 12.052 L 27.835 12.003 L 27.753 16.655 C 26.989 16.641 26.209 16.643 25.43 16.645 L 25.514 11.962 L 22.606 11.911 L 22.523 16.688 C 21.893 16.689 21.273 16.692 20.671 16.68 L 20.67 16.665 L 16.659 16.594 L 16.605 19.7 C 16.605 19.7 18.754 19.696 18.718 19.735 C 19.896 19.756 20.267 20.446 20.368 21.04 L 20.274 26.482 C 20.355 26.484 20.46 26.49 20.582 26.507 L 20.274 26.503 L 20.141 34.128 C 20.082 34.497 19.854 35.084 19.03 35.071 C 19.067 35.105 16.916 35.035 16.916 35.035 L 16.278 38.497 L 20.064 38.563 C 20.767 38.576 21.46 38.601 22.139 38.617 L 22.056 43.449 L 24.962 43.498 L 25.045 38.72 C 25.843 38.749 26.615 38.768 27.369 38.782 L 27.284 43.54 L 30.191 43.59 L 30.276 38.768 C 35.171 38.572 38.614 37.401 39.119 32.816 C 39.527 29.126 37.817 27.444 35.053 26.73 C 36.755 25.902 37.835 24.407 37.632 21.882 Z M 33.382 32.143 C 33.322 35.755 27.145 35.236 25.173 35.203 L 25.287 28.801 C 27.259 28.836 33.449 28.378 33.382 32.143 Z M 32.188 23.087 C 32.13 26.373 26.98 25.898 25.339 25.869 L 25.44 20.065 C 27.081 20.093 32.248 19.659 32.188 23.087 Z" fill="rgb(255,255,255)"></path></svg>