<svg xmlns="http://www.w3.org/2000/svg" width="25" height="25"><path d="M 2.708 6.249 C 6.326 6.204 9.806 4.847 12.5 2.43 C 15.194 4.847 18.673 6.205 22.293 6.25 C 22.43 7.063 22.5 7.9 22.5 8.751 C 22.5 15.282 18.325 20.839 12.5 22.897 C 6.675 20.838 2.5 15.281 2.5 8.75 C 2.5 7.897 2.571 7.062 2.708 6.249 Z M 17.134 10.884 C 17.607 10.393 17.601 9.614 17.119 9.131 C 16.636 8.649 15.857 8.643 15.366 9.116 L 11.25 13.232 L 9.634 11.616 C 9.143 11.143 8.364 11.149 7.881 11.631 C 7.399 12.114 7.393 12.893 7.866 13.384 L 10.366 15.884 C 10.854 16.372 11.646 16.372 12.134 15.884 Z" fill="#8669DD"></path></svg>