<svg xmlns="http://www.w3.org/2000/svg" width="25" height="25"><path d="M 2.5 13.75 C 2.5 13.06 3.06 12.5 3.75 12.5 L 6.25 12.5 C 6.94 12.5 7.5 13.06 7.5 13.75 L 7.5 20 C 7.5 20.69 6.94 21.25 6.25 21.25 L 3.75 21.25 C 3.06 21.25 2.5 20.69 2.5 20 Z M 10 8.75 C 10 8.06 10.56 7.5 11.25 7.5 L 13.75 7.5 C 14.44 7.5 15 8.06 15 8.75 L 15 20 C 15 20.69 14.44 21.25 13.75 21.25 L 11.25 21.25 C 10.56 21.25 10 20.69 10 20 Z M 17.5 5 C 17.5 4.31 18.06 3.75 18.75 3.75 L 21.25 3.75 C 21.94 3.75 22.5 4.31 22.5 5 L 22.5 20 C 22.5 20.69 21.94 21.25 21.25 21.25 L 18.75 21.25 C 18.06 21.25 17.5 20.69 17.5 20 Z" fill="#ffffff"></path></svg>