<svg width="208" height="48" viewBox="0 0 208 48" fill="none" xmlns="http://www.w3.org/2000/svg">
<path d="M57.4526 23.1789C57.4526 27.2842 54.6737 30.1263 49.621 30.1263H47.7894V36.4842C47.7894 36.7578 47.621 36.9263 47.3473 36.9263H43.1789C42.9052 36.9263 42.7368 36.7578 42.7368 36.4842V16.6736C42.7368 16.3999 42.9052 16.2314 43.1789 16.2314H49.621C54.6737 16.2314 57.4526 19.0735 57.4526 23.1789ZM52.6316 23.1789C52.6316 21.1578 50.9473 20.6735 49.5158 20.6735H47.7684V25.7052H49.5158C50.9473 25.7052 52.6316 25.1578 52.6316 23.1789Z" fill="white"/>
<path d="M76.5684 36.9473H72.2105C71.979 36.9473 71.7895 36.8631 71.7053 36.5894L70.7369 33.5789H63.9369L62.9895 36.5894C62.9053 36.8631 62.7158 36.9473 62.4842 36.9473H58.1263C57.8105 36.9473 57.6632 36.7368 57.7684 36.4421L64.9053 16.5893C64.9895 16.3578 65.179 16.2314 65.4105 16.2314H69.2C69.4316 16.2314 69.6632 16.3578 69.7684 16.5893L76.9263 36.4421C77.0316 36.7368 76.8842 36.9473 76.5684 36.9473ZM69.3684 29.3052L67.3263 22.9052L65.2842 29.3052H69.3684Z" fill="white"/>
<path d="M92.0421 32.9473V36.5052C92.0421 36.7789 91.8737 36.9473 91.6 36.9473H80.8842C80.6106 36.9473 80.4421 36.7789 80.4421 36.5052V16.6736C80.4421 16.3999 80.6106 16.2314 80.8842 16.2314H85.0527C85.3264 16.2314 85.4948 16.3999 85.4948 16.6736V32.5052H91.579C91.8527 32.5052 92.0421 32.6736 92.0421 32.9473Z" fill="white"/>
<path d="M118.042 16.6736V36.4842C118.042 36.7578 117.874 36.9263 117.6 36.9263H113.432C113.158 36.9263 112.99 36.7578 112.99 36.4842V27.4105L109.411 36.5473C109.326 36.7789 109.095 36.9263 108.842 36.9263H105.137C104.905 36.9263 104.674 36.7789 104.568 36.5473L100.99 27.4105V36.4842C100.99 36.7578 100.821 36.9263 100.547 36.9263H96.379C96.1053 36.9263 95.9369 36.7578 95.9369 36.4842V16.6736C95.9369 16.3999 96.1053 16.2314 96.379 16.2314H101.032C101.263 16.2314 101.474 16.3157 101.558 16.5262L106.968 31.0736L112.421 16.5262C112.505 16.3157 112.716 16.2314 112.947 16.2314H117.6C117.853 16.2314 118.042 16.3999 118.042 16.6736Z" fill="white"/>
<path d="M136.589 30.9263C136.589 35.2842 132.695 37.3263 129.2 37.3263C126.063 37.3263 123.284 35.621 121.916 34.0421C121.768 33.8737 121.747 33.6211 121.916 33.4105L124.189 30.8421C124.337 30.6316 124.611 30.5684 124.842 30.7789C126.442 32 127.705 32.5474 129.347 32.5474C130.505 32.5474 131.663 32.0211 131.663 30.8632C131.663 28 122.316 28.9053 122.316 22.0842C122.316 18.1474 125.663 16 129.053 16C131.811 16 133.853 17.0947 135.621 18.7158C135.832 18.9263 135.832 19.0947 135.684 19.3474L133.516 22.0421C133.347 22.2737 133.137 22.3158 132.884 22.1684C131.368 21.2 130.484 20.7789 129.221 20.7789C127.832 20.7789 127.242 21.5158 127.242 22.2316C127.242 25.1368 136.589 23.6632 136.589 30.9263Z" fill="white"/>
<path d="M169.747 16.7367L163.516 36.5894C163.432 36.821 163.2 36.9473 162.947 36.9473H158.926C158.695 36.9473 158.505 36.821 158.463 36.5894L154.253 23.8315L150.021 36.5894C149.937 36.821 149.747 36.9473 149.516 36.9473H145.516C145.284 36.9473 144.989 36.821 144.926 36.5894L138.779 16.7367C138.653 16.442 138.8 16.2314 139.137 16.2314H143.495C143.726 16.2314 143.916 16.3157 144 16.5893L147.6 30.1684L151.768 16.5893C151.789 16.4209 151.895 16.3157 152.042 16.2735C152.105 16.2525 152.168 16.2525 152.253 16.2525H156.253C156.379 16.2525 156.463 16.2736 156.526 16.3157C156.611 16.3788 156.674 16.463 156.737 16.6104L160.884 30.1894L164.589 16.6104C164.653 16.3367 164.863 16.2525 165.095 16.2525H169.453C169.726 16.2314 169.832 16.442 169.747 16.7367Z" fill="white"/>
<path d="M187.516 36.9473H183.158C182.926 36.9473 182.737 36.8631 182.653 36.5894L181.684 33.5789H174.884L173.937 36.5894C173.853 36.8631 173.663 36.9473 173.432 36.9473H169.074C168.758 36.9473 168.611 36.7368 168.716 36.4421L175.874 16.5893C175.958 16.3578 176.147 16.2314 176.379 16.2314H180.168C180.4 16.2314 180.632 16.3578 180.737 16.5893L187.895 36.4421C188 36.7368 187.853 36.9473 187.516 36.9473ZM180.337 29.3052L178.295 22.9052L176.253 29.3052H180.337Z" fill="white"/>
<path d="M206.126 23.1789C206.126 27.2842 203.347 30.1263 198.295 30.1263H196.463V36.4842C196.463 36.7578 196.295 36.9263 196.021 36.9263H191.853C191.579 36.9263 191.411 36.7578 191.411 36.4842V16.6736C191.411 16.3999 191.579 16.2314 191.853 16.2314H198.295C203.347 16.2314 206.126 19.0735 206.126 23.1789ZM201.305 23.1789C201.305 21.1578 199.621 20.6735 198.189 20.6735H196.442V25.7052H198.189C199.621 25.7052 201.305 25.1578 201.305 23.1789Z" fill="white"/>
<path d="M4.14292 14.821C5.59555 13.5158 7.04818 12.2105 8.47976 10.9052C11.385 8.29471 14.2903 5.68418 17.1956 3.07366C17.2587 3.0105 17.3219 2.9684 17.364 2.92629C17.4271 2.86313 17.4903 2.82103 17.5324 2.77892C17.5534 2.75787 17.5745 2.73682 17.5956 2.73682C17.5956 2.73682 17.6166 2.75787 17.6377 2.77892C17.6798 2.82103 17.7219 2.86313 17.785 2.92629C17.8271 2.9684 17.8692 3.03155 17.9324 3.09471C18.4377 3.66313 18.964 4.23155 19.4692 4.79997C20.9219 6.37892 22.3746 7.97892 23.7009 9.62103C25.4904 11.8316 27.0061 14.0631 27.8693 16.3579C28.7325 18.6316 28.943 20.9684 28.1219 23.3473C27.3009 25.7473 25.4483 28.2316 22.1219 30.821C21.5114 31.2631 20.6903 31.3684 19.9113 31.2C19.1324 31.0316 18.4377 30.5894 18.1008 29.9158C17.7219 29.221 17.6166 28.6526 17.6587 28.1473C17.7008 27.6631 17.9113 27.221 18.2271 26.8C18.5008 26.421 18.8587 26.0421 19.2377 25.6421C19.2798 25.6 19.3219 25.5579 19.3429 25.5158C19.764 25.0737 20.2061 24.6105 20.564 24.0842C24.0798 18.4421 16.6903 11.3052 10.7324 16.5052C10.4798 16.7368 10.2061 16.9894 9.91134 17.2631L9.89029 17.2842C9.6166 17.5579 9.32187 17.8316 9.02713 18.0842C8.4166 18.6316 7.76397 19.1368 7.13239 19.4737C6.50081 19.8105 5.86923 19.9579 5.27976 19.8316C4.69029 19.6842 4.10081 19.2631 3.51134 18.3158C2.85871 17.3052 3.13239 15.7052 4.14292 14.821Z" fill="white"/>
<path d="M31.3012 34.9476C32.3959 33.9792 32.6906 32.274 31.9748 31.1582C29.5748 27.3055 26.4801 31.1371 24.4169 32.9266C18.6275 37.9582 11.5117 31.0529 14.9012 25.6213C16.2906 23.5371 18.9433 22.5055 17.3854 19.6002C16.6064 18.1475 14.3748 17.6633 13.0275 18.6318C-0.362018 29.0529 9.51168 38.1266 17.1959 46.674C17.7222 47.2424 17.5959 47.2424 18.2275 46.695C22.6275 42.7371 26.9433 38.8634 31.3012 34.9476Z" fill="white"/>
</svg>
