<svg xmlns="http://www.w3.org/2000/svg" width="66" height="100"><path d="M 3.202 27.191 C 6.428 24.263 9.655 21.334 12.835 18.406 C 19.288 12.549 25.741 6.692 32.194 0.835 C 32.334 0.693 32.474 0.599 32.568 0.504 C 32.708 0.363 32.849 0.268 32.942 0.174 C 32.989 0.126 33.036 0.079 33.082 0.079 C 33.082 0.079 33.129 0.126 33.176 0.174 C 33.269 0.268 33.363 0.363 33.503 0.504 C 33.597 0.599 33.69 0.74 33.83 0.882 C 34.953 2.157 36.122 3.433 37.244 4.708 C 40.471 8.251 43.697 11.84 46.643 15.525 C 50.618 20.484 53.985 25.491 55.902 30.639 C 57.819 35.74 58.287 40.983 56.463 46.321 C 54.639 51.705 50.525 57.279 43.136 63.088 C 41.78 64.081 39.956 64.317 38.226 63.939 C 36.496 63.561 34.953 62.569 34.205 61.058 C 33.363 59.499 33.129 58.224 33.223 57.09 C 33.316 56.004 33.784 55.012 34.485 54.067 C 35.093 53.217 35.888 52.367 36.73 51.469 C 36.823 51.375 36.917 51.28 36.964 51.186 C 37.899 50.194 38.881 49.155 39.676 47.974 C 47.485 35.315 31.072 19.303 17.838 30.97 C 17.277 31.489 16.669 32.056 16.015 32.67 L 15.968 32.718 C 15.36 33.332 14.705 33.945 14.051 34.512 C 12.694 35.74 11.245 36.874 9.842 37.63 C 8.439 38.385 7.036 38.716 5.727 38.433 C 4.418 38.102 3.108 37.158 1.799 35.032 C 0.35 32.765 0.957 29.175 3.202 27.191 Z" fill="rgb(255,255,255)"></path><path d="M 63.523 72.348 C 65.955 70.175 66.609 66.35 65.02 63.846 C 59.689 55.202 52.815 63.799 48.232 67.814 C 35.373 79.103 19.568 63.61 27.096 51.424 C 30.182 46.748 36.074 44.433 32.614 37.915 C 30.884 34.656 25.927 33.569 22.935 35.742 C -6.806 59.123 15.125 79.481 32.193 98.657 C 33.362 99.933 33.082 99.933 34.484 98.705 C 44.257 89.825 53.844 81.134 63.523 72.348 Z" fill="rgb(255,255,255)"></path></svg>