<svg xmlns="http://www.w3.org/2000/svg" width="25" height="25"><path d="M 12.5 22.5 C 18.023 22.5 22.5 18.023 22.5 12.5 C 22.5 6.977 18.023 2.5 12.5 2.5 C 6.977 2.5 2.5 6.977 2.5 12.5 C 2.5 18.023 6.977 22.5 12.5 22.5 Z M 5.415 10.034 C 5.879 8.705 6.707 7.533 7.805 6.651 C 8.14 7.163 8.717 7.5 9.375 7.5 C 10.411 7.5 11.25 8.339 11.25 9.375 L 11.25 10 C 11.25 11.381 12.369 12.5 13.75 12.5 C 15.131 12.5 16.25 11.381 16.25 10 C 16.25 8.849 17.036 7.846 18.154 7.571 C 19.347 8.936 20.003 10.688 20 12.5 C 20 12.925 19.965 13.344 19.896 13.75 L 18.75 13.75 C 17.369 13.75 16.25 14.869 16.25 16.25 L 16.25 18.996 C 15.11 19.656 13.817 20.002 12.5 20 L 12.5 17.5 C 12.5 16.119 11.381 15 10 15 C 8.619 15 7.5 13.881 7.5 12.5 C 7.5 11.279 6.619 10.236 5.415 10.034 Z" fill="#8669DD"></path></svg>