<svg xmlns="http://www.w3.org/2000/svg" width="25" height="25"><path d="M 14.125 1.308 C 14.646 1.471 15 1.954 15 2.5 L 15 8.75 L 20 8.75 C 20.466 8.75 20.894 9.009 21.109 9.422 C 21.324 9.835 21.292 10.334 21.025 10.716 L 12.275 23.216 C 11.962 23.664 11.395 23.857 10.875 23.693 C 10.354 23.529 10 23.046 10 22.5 L 10 16.25 L 5 16.25 C 4.534 16.25 4.106 15.991 3.891 15.578 C 3.676 15.165 3.708 14.666 3.975 14.284 L 12.725 1.784 C 13.038 1.337 13.605 1.145 14.125 1.309 Z" fill="#8669DD"></path></svg>